<?xml version="1.0" encoding="UTF-8"?>
<svg version="1.1" viewBox="0 0 1600 784" width="1280" height="1280" xmlns="http://www.w3.org/2000/svg">
<path transform="translate(292,265)" d="m0 0c86.7-0.015 173-0.0299 297-0.0423 1.48-1.39e-4 2.96-2.79e-4 4.44-4.18e-4 31.1-0.00292 62.2-0.00564 93.2-0.00812 15.6-0.00125 31.2-0.00253 46.8-0.00385 2.35-1.99e-4 4.71-3.97e-4 7.06-5.95e-4 36.3-0.00306 72.5-0.00697 109-0.0133 0.78-1.37e-4 1.56-2.74e-4 2.36-4.15e-4 12.6-0.00221 25.2-0.0045 37.7-0.00679 36.2-0.0066 72.4-0.0127 109-0.0153 1.12-8.03e-5 1.12-8.03e-5 2.26-1.62e-4 16.3-0.00117 32.7-0.00206 49-0.0027 6.57-2.62e-4 13.1-5.62e-4 19.7-8.76e-4 1.08-5.01e-5 1.08-5.01e-5 2.18-1.01e-4 23.2-0.0011 46.4-0.00537 69.6-0.0113 24-0.00612 48-0.00873 72-0.00722 13.9 7.64e-4 27.7-0.00129 41.6-0.0073 9.24-0.00373 18.5-0.00388 27.7-0.00103 5.28 0.00152 10.6 0.0014 15.8-0.00305 4.79-0.00402 9.58-0.00352 14.4 7.43e-4 1.73 7.2e-4 3.46-2.74e-4 5.19-0.0031 2.33-0.00356 4.67-0.00108 7 0.00304 1.95-2.34e-4 1.95-2.34e-4 3.93-4.73e-4 2.99 0.125 2.99 0.125 4.99 1.12-0.33 0.99-0.66 1.98-1 3-0.0963 1.79-0.134 3.59-0.139 5.38-0.00548 1.12-0.011 2.25-0.0166 3.41-9.77e-4 1.24-0.00195 2.48-0.00296 3.76-0.00493 1.31-0.00986 2.62-0.0149 3.97-0.0136 3.65-0.021 7.3-0.0274 11-0.00812 3.99-0.022 7.99-0.0352 12-0.0247 7.76-0.0443 15.5-0.0621 23.3-0.0208 8.97-0.048 17.9-0.0751 26.9-0.0686 23.7-0.129 47.4-0.19 71.1l-0.438 160h-411v54c45.5 0.33 91.1 0.66 138 1v-21c0.33-2.31 0.66-4.62 1-7h164v6c-0.33 0.33-0.66 0.66-1 1v129h-538c-1.1-3.31-1.14-5.79-1.16-9.28-0.0147-1.98-0.0147-1.98-0.0297-3.99-0.0059-1.46-0.0117-2.93-0.0174-4.39-0.00958-1.54-0.0196-3.07-0.03-4.61-0.0271-4.18-0.0481-8.35-0.068-12.5-0.0219-4.36-0.0492-8.73-0.0761-13.1-0.0499-8.27-0.0949-16.5-0.138-24.8-0.0494-9.41-0.104-18.8-0.16-28.2-0.114-19.4-0.221-38.7-0.323-58.1h2c-0.33-1.32-0.66-2.64-1-4-130-0.33-259-0.66-393-1-1.02-3.05-1.13-5.1-1.13-8.29-0.00484-1.66-0.00484-1.66-0.00977-3.34 0.00155-1.22 0.0031-2.43 0.00469-3.69-0.00227-1.29-0.00453-2.58-0.00687-3.91-0.00613-3.59-0.00598-7.17-0.00481-10.8 2.04e-4 -3.87-0.00531-7.73-0.0101-11.6-0.00832-7.58-0.0111-15.2-0.0116-22.7-4.75e-4 -6.16-0.00253-12.3-0.0057-18.5-0.00881-17.4-0.0134-34.9-0.0127-52.3 4e-5 -0.941 7.99e-5 -1.88 1.21e-4 -2.85 4.09e-5 -0.942 8.18e-5 -1.88 1.24e-4 -2.85 4.07e-4 -15.3-0.00916-30.5-0.0233-45.8-0.0144-15.7-0.0213-31.3-0.0204-47 3.32e-4 -8.8-0.00243-17.6-0.0132-26.4-0.00909-7.49-0.0113-15-0.00449-22.5 0.00327-3.82 0.0033-7.65-0.00535-11.5-0.00927-4.14-0.00311-8.29 0.00463-12.4-0.00514-1.21-0.0103-2.43-0.0156-3.68 0.0069-1.66 0.0069-1.66 0.0139-3.36-2.17e-4 -0.956-4.35e-4 -1.91-6.59e-4 -2.9 0.271-2.87 1.13-5 2.25-7.64zm256 57c-0.821 5.3-1.15 10.5-1.15 15.9-0.00336 0.739-0.00672 1.48-0.0102 2.24-0.00941 2.41-0.0114 4.83-0.0125 7.24-0.00322 1.69-0.00658 3.38-0.0101 5.06-0.00596 3.52-0.00784 7.04-0.00725 10.6 1.02e-4 4.52-0.0136 9.04-0.0308 13.6-0.0111 3.48-0.0131 6.96-0.0126 10.4-0.00118 1.67-0.00562 3.33-0.0133 5-0.00975 2.32-0.00694 4.64-8.95e-4 6.97-0.00562 0.691-0.0112 1.38-0.017 2.09-0.0705 3.93-0.0705 3.93 2.26 6.98 2.46 0.299 2.46 0.299 5.37 0.241 1.14 0.00275 2.28 0.0055 3.45 0.00833 1.26-0.00719 2.51-0.0144 3.8-0.0218 1.98 4.38e-4 1.98 4.38e-4 3.99 8.85e-4 3.62 5.75e-4 7.24-0.0112 10.9-0.0251 3.78-0.0125 7.56-0.0137 11.3-0.0161 7.16-0.00622 14.3-0.0226 21.5-0.0427 8.15-0.0223 16.3-0.0333 24.4-0.0434 16.8-0.0209 33.5-0.0561 50.3-0.101v-3.12-83.9c-17.6-0.0233-35.2-0.041-52.8-0.0518-8.16-0.00516-16.3-0.0122-24.5-0.0236-7.11-0.00995-14.2-0.0164-21.3-0.0186-3.77-0.00131-7.54-0.00439-11.3-0.0116-4.2-0.00801-8.4-0.00826-12.6-0.0078-1.26-0.0036-2.52-0.00719-3.81-0.0109-1.14 0.00137-2.27 0.00275-3.45 0.00417-1.49-0.00138-1.49-0.00138-3.01-0.00279-2.2-0.127-2.2-0.127-3.23 1.12zm373-1c-4.64 23.2-2.28 48.9-1.56 72.5 0.0196 0.68 0.0391 1.36 0.0593 2.06 0.0565 1.91 0.121 3.81 0.187 5.72 0.0367 1.08 0.0733 2.17 0.111 3.28-0.0629 2.38-0.0629 2.38 1.21 3.44 1.77 0.0963 3.55 0.122 5.32 0.12 1.73 0.00206 1.73 0.00206 3.5 0.00417 1.92-0.00539 1.92-0.00539 3.87-0.0109 1.35-2.82e-4 2.7-1.24e-4 4.05 4.43e-4 3.68 2.88e-4 7.35-0.00561 11-0.0126 3.84-0.00623 7.67-0.00684 11.5-0.00803 7.27-0.00311 14.5-0.0113 21.8-0.0213 8.28-0.0112 16.6-0.0167 24.8-0.0217 17-0.0105 34.1-0.0281 51.1-0.0503v-3.12-83.9h-137zm-372 115c-2.14 5.24-2.28 9.81-2.26 15.4-0.0035 0.924-0.00701 1.85-0.0106 2.8-0.00877 3.04-0.00299 6.08 0.00378 9.13-0.00135 2.12-0.00329 4.23-0.0058 6.35-0.00294 4.43 0.00133 8.86 0.0107 13.3 0.0114 5.69 0.00481 11.4-0.00714 17.1-0.00721 4.37-0.00493 8.73 2.56e-4 13.1 0.00134 2.1-3.13e-4 4.19-0.00496 6.29-0.00506 2.92 0.00263 5.85 0.0138 8.77-0.00405 0.872-0.0081 1.74-0.0123 2.64-0.177 4.58-0.177 4.58 2.27 8.21 2.46 0.299 2.46 0.299 5.37 0.241 1.14 0.00275 2.28 0.0055 3.45 0.00833 1.26-0.00719 2.51-0.0144 3.8-0.0218 1.98 4.38e-4 1.98 4.38e-4 3.99 8.85e-4 3.62 5.75e-4 7.24-0.0112 10.9-0.0251 3.78-0.0125 7.56-0.0137 11.3-0.0161 7.16-0.00622 14.3-0.0226 21.5-0.0427 8.15-0.0223 16.3-0.0333 24.4-0.0434 16.8-0.0209 33.5-0.0561 50.3-0.101-0.00222-1.22-0.00444-2.44-0.00673-3.69-0.0203-11.5-0.0353-23-0.0451-34.4-0.00522-5.9-0.0123-11.8-0.0236-17.7-0.0109-5.69-0.0168-11.4-0.0194-17.1-0.00185-2.17-0.00546-4.35-0.0109-6.52-0.00724-3.04-0.00826-6.08-0.0078-9.12-0.0036-0.902-0.00719-1.8-0.0109-2.73 0.00137-0.83 0.00275-1.66 0.00417-2.52-0.00138-1.08-0.00138-1.08-0.00279-2.18 0.123-2.02 0.123-2.02 0.693-4.22 0.213-0.891 0.213-0.891 0.43-1.8-1.03-1.25-1.03-1.25-3.23-1.12-0.995 9.22e-4 -1.99 0.00184-3.01 0.00279-1.71-0.00206-1.71-0.00206-3.45-0.00417-1.26 0.0036-2.52 0.00719-3.81 0.0109-1.32-1.46e-4 -2.63-2.92e-4 -3.99-4.43e-4 -3.62-2.88e-4 -7.24 0.00561-10.9 0.0126-3.78 0.00623-7.56 0.00684-11.3 0.00803-7.16 0.00311-14.3 0.0113-21.5 0.0213-8.15 0.0112-16.3 0.0167-24.5 0.0217-16.8 0.0105-33.6 0.0281-50.3 0.0503zm372 0c-1.73 14.2-1.73 14.2-2.23 28.5 5.04e-5 0.894 1.01e-4 1.79 1.53e-4 2.71 0.00355 2.85 0.0224 5.7 0.0428 8.56 0.00757 2 0.0148 4 0.0217 6.01 0.0623 13.4 0.273 26.7 0.603 40.1 0.0195 0.825 0.0389 1.65 0.059 2.5 0.0564 2.3 0.12 4.6 0.187 6.9 0.0367 1.29 0.0733 2.59 0.111 3.92-0.117 2.77-0.117 2.77 1.21 3.87 1.77 0.0963 3.55 0.122 5.32 0.12 1.73 0.00206 1.73 0.00206 3.5 0.00417 1.92-0.00539 1.92-0.00539 3.87-0.0109 1.35-2.82e-4 2.7-1.24e-4 4.05 4.43e-4 3.68 2.88e-4 7.35-0.00561 11-0.0126 3.84-0.00623 7.67-0.00684 11.5-0.00803 7.27-0.00311 14.5-0.0113 21.8-0.0213 8.28-0.0112 16.6-0.0167 24.8-0.0217 17-0.0105 34.1-0.0281 51.1-0.0503-0.00222-1.22-0.00444-2.44-0.00673-3.69-0.0203-11.5-0.0353-23-0.0451-34.4-0.00522-5.9-0.0123-11.8-0.0236-17.7-0.0109-5.69-0.0168-11.4-0.0194-17.1-0.00185-2.17-0.00546-4.35-0.0109-6.52-0.00724-3.04-0.00826-6.08-0.0078-9.12-0.0036-0.902-0.00719-1.8-0.0109-2.73 0.00137-0.83 0.00275-1.66 0.00417-2.52-0.00138-1.08-0.00138-1.08-0.00279-2.18 0.123-2.02 0.123-2.02 0.693-4.22 0.213-0.891 0.213-0.891 0.43-1.8-1.03-1.25-1.03-1.25-3.26-1.12-1.01 9.22e-4 -2.02 0.00184-3.06 0.00279-1.73-0.00206-1.73-0.00206-3.5-0.00417-1.92 0.00539-1.92 0.00539-3.87 0.0109-1.35 2.82e-4 -2.7 1.24e-4 -4.05-4.43e-4 -3.68-2.88e-4 -7.35 0.00561-11 0.0126-3.84 0.00623-7.67 0.00684-11.5 0.00803-7.27 0.00311-14.5 0.0113-21.8 0.0213-8.28 0.0112-16.6 0.0167-24.8 0.0217-17 0.0105-34.1 0.0281-51.1 0.0503z" fill="#D7DBDC"/>
<path transform="translate(40,172)" d="m0 0h1523c-0.33 21.1-0.66 42.2-1 64-753 0.495-753 0.495-1522 1-1.05-3.16-1.13-5.39-1.13-8.71-0.00315-1.17-0.0063-2.34-0.00955-3.55 0.00202-1.27 0.00405-2.53 0.00613-3.84-0.00144-1.95-0.00144-1.95-0.0029-3.93-0.00147-2.75 6.68e-4 -5.49 0.00534-8.24 0.0057-3.52 0.00242-7.04-0.00357-10.6-0.00448-3.36-0.00134-6.72 0.00113-10.1-0.00202-1.27-0.00405-2.53-0.00613-3.84 0.00315-1.17 0.0063-2.34 0.00955-3.55 7.96e-4 -1.03 0.00159-2.06 0.00241-3.13 0.127-2.58 0.127-2.58 1.13-5.58z" fill="#D1D5D6"/>
<path transform="translate(702,295)" d="m0 0v2h2v-2h3v2h2v-2h166v2c0.675-0.0838 1.35-0.168 2.05-0.254 0.892-0.102 1.78-0.204 2.7-0.309 1.32-0.157 1.32-0.157 2.67-0.316 2.46-0.116 4.24 0.143 6.58 0.879 0.33-0.66 0.66-1.32 1-2v2h10v2c0.99 0.33 1.98 0.66 3 1v9c0.99 0.33 1.98 0.66 3 1h-2v4c0.66 0.33 1.32 0.66 2 1h-2v4h2v2h2c0.33-0.66 0.66-1.32 1-2h2c0.33 0.99 0.66 1.98 1 3l-4 1c0.0736 0.711 0.147 1.42 0.223 2.15 0.737 7.79 0.838 15.4 0.656 23.3-0.0236 1.23-0.0472 2.45-0.0715 3.72-0.0759 3.87-0.16 7.74-0.245 11.6-0.0533 2.64-0.106 5.29-0.158 7.93-0.128 6.44-0.264 12.9-0.404 19.3h-6c0.00524 0.648 0.0105 1.3 0.0159 1.97 0.0805 11.5 0.144 22.9-0.895 34.4-0.335 2.61-0.335 2.61 0.879 4.63 0.512 3.3 0.796 6.62 1.12 9.94 0.0993 0.92 0.199 1.84 0.301 2.79 0.0889 0.884 0.178 1.77 0.27 2.68 0.0827 0.809 0.165 1.62 0.25 2.45 0.0542 2.14 0.0542 2.14-0.946 5.14 1.65 0.33 3.3 0.66 5 1-0.66 0.33-1.32 0.66-2 1v3h2v61h-6c0.0838 1.29 0.168 2.58 0.254 3.91 0.103 1.72 0.206 3.43 0.309 5.15 0.0561 0.848 0.112 1.7 0.17 2.57 0.288 4.98-0.0253 9.42-0.732 14.4 0.29 3.29 0.29 3.29 0.938 6.44 0.195 1.05 0.389 2.1 0.59 3.18 0.156 0.785 0.312 1.57 0.473 2.38 1.98 0.33 3.96 0.66 6 1-0.186 0.619-0.371 1.24-0.562 1.88-0.674 2.17-0.674 2.17 0.562 4.12h-2v3c-1.32 0.33-2.64 0.66-4 1l0.0352 1.79c0.0485 4.25-0.151 8.04-1.04 12.2 0.33 0.66 0.66 1.32 1 2v4c2.72 2.31 2.72 2.31 5.19 1.62 0.897-0.309 0.897-0.309 1.81-0.625-0.33 0.66-0.66 1.32-1 2h-2c0.33 3.96 0.66 7.92 1 12-3.11-4.15-3.52-6.01-4-11-0.0735 1.16-0.0735 1.16-0.148 2.34-0.0748 1-0.15 2.01-0.227 3.04-0.0696 0.998-0.139 2-0.211 3.02-0.414 2.6-0.414 2.6-2.41 4.6v4h2c-0.33 1.65-0.66 3.3-1 5h2v-8c2.39 3.83 2.56 7.6 3 12h-5c0.0309 1.27 0.0309 1.27 0.0625 2.56-0.0625 3.44-0.0625 3.44-0.562 6.81-0.388 2.81-0.488 5.08-0.375 7.88-0.125 3.75-0.125 3.75-1.62 5.16-1.75 1.53-1.75 1.53-1.8 4.07 0.0348 0.893 0.0696 1.79 0.105 2.71 0.0271 0.901 0.0541 1.8 0.082 2.73 0.0348 0.687 0.0696 1.37 0.105 2.08h3v16c0.66 0.33 1.32 0.66 2 1h-2v4c3.63 0.33 7.26 0.66 11 1v5c1.05-0.165 2.1-0.33 3.19-0.5 3.02-0.396 5.78-0.592 8.81-0.5 0.33 2.31 0.66 4.62 1 7 1.07-0.186 2.14-0.371 3.25-0.562 3.15-0.368 4.85-0.482 7.75 0.562 0.33-1.32 0.66-2.64 1-4 0.66 0.33 1.32 0.66 2 1v3h3c0.33 1.32 0.66 2.64 1 4h4c0.33-0.99 0.66-1.98 1-3v3h4c0.33-2.31 0.66-4.62 1-7 0.626-0.133 1.25-0.266 1.9-0.402 0.817-0.177 1.63-0.353 2.48-0.535 0.812-0.174 1.62-0.348 2.46-0.527 2.19-0.458 2.19-0.458 4.16-1.54v2c0.675-0.0116 1.35-0.0232 2.05-0.0352 1.34-0.0135 1.34-0.0135 2.7-0.0273 0.882-0.0116 1.76-0.0232 2.67-0.0352 2.36 0.0894 4.32 0.429 6.58 1.1v3h14c0.33-0.99 0.66-1.98 1-3v3h15v4c0.674-0.174 1.35-0.348 2.04-0.527 3.54-0.566 6.7-0.336 10.3-0.0352 1.25 0.102 2.51 0.204 3.8 0.309 1.43 0.126 1.43 0.126 2.89 0.254v4c0.908-0.186 1.82-0.371 2.75-0.562 2.93-0.395 4.51-0.384 7.25 0.562-0.144-0.949-0.289-1.9-0.438-2.88-0.674-4.69-1.12-9.41-1.56-14.1 2.64-0.33 5.28-0.66 8-1 2 3 2 3 2 6h2c0.33-1.32 0.66-2.64 1-4 0.66 0.33 1.32 0.66 2 1v3h2v-3c1.65 0.33 3.3 0.66 5 1v2h20v-3c0.99-0.33 1.98-0.66 3-1 1.69-2 1.69-2 3-4v2h2v-2h3v2h2v-3h-3v-2h-2v-2h3v2h2v-3h-3v-4h2v-4c-0.66-0.33-1.32-0.66-2-1 1.65-0.33 3.3-0.66 5-1v-3c1.32-0.33 2.64-0.66 4-1-0.66-1.65-1.32-3.3-2-5l6 3c-0.0619-1.08-0.0619-1.08-0.125-2.19 0.134-3.02 0.877-5.08 2.12-7.81h6c-0.66 0.33-1.32 0.66-2 1 0.33 0.578 0.66 1.16 1 1.75 1 2.25 1 2.25 1 6.25 1.09-0.165 2.19-0.33 3.31-0.5 13.3-1.67 13.3-1.67 17.7 0.5v-4h-6c0.99-0.66 1.98-1.32 3-2 0.99 0.33 1.98 0.66 3 1v-6h13c-0.66 0.33-1.32 0.66-2 1v2h-3c-0.33 0.66-0.66 1.32-1 2h6v7h4c0.33-0.66 0.66-1.32 1-2v2h4v-2h-2c-0.33-0.99-0.66-1.98-1-3 3 0 3 0 4.69 1.5 0.433 0.495 0.866 0.99 1.31 1.5-0.669-3.11-0.669-3.11-3.06-4.19-0.639-0.268-1.28-0.536-1.94-0.812v-5h13c-0.66 0.99-1.32 1.98-2 3-1.32-0.33-2.64-0.66-4-1v3h7v-3h2v-2h11v-3h9c-4 2-4 2-6.25 1.62-0.866-0.309-0.866-0.309-1.75-0.625v2c0.577 0.144 1.16 0.289 1.75 0.438 0.743 0.186 1.49 0.371 2.25 0.562 0.722 0.124 1.44 0.247 2.19 0.375 0.598 0.206 1.2 0.412 1.81 0.625 0.33 0.99 0.66 1.98 1 3h3v4c0.619-0.186 1.24-0.371 1.88-0.562 4.46-0.624 8.68 0.00146 13.1 0.562-0.33-2.31-0.66-4.62-1-7h2v-4c-0.66-0.33-1.32-0.66-2-1h8c-0.66 0.99-1.32 1.98-2 3h-2c-0.33 0.66-0.66 1.32-1 2 0.639-0.186 1.28-0.371 1.94-0.562 0.681-0.144 1.36-0.289 2.06-0.438 1 1 1 1 1.06 3.56-0.0206 0.804-0.0412 1.61-0.0625 2.44h-6v11h6c-0.66 0.66-1.32 1.32-2 2h-3v3c0.639-0.186 1.28-0.371 1.94-0.562 0.681-0.144 1.36-0.289 2.06-0.438 1 1 1 1 1.11 2.95-0.00524 0.833-0.0105 1.67-0.0159 2.52-0.00322 0.899-0.00645 1.8-0.00977 2.72-0.00838 0.946-0.0168 1.89-0.0254 2.87-0.00451 0.949-0.00902 1.9-0.0137 2.88-0.0118 2.35-0.0283 4.71-0.0488 7.06h2v-20h2v-3h-2v-2h3v25h2c-0.00444-0.584-0.00888-1.17-0.0135-1.77-0.0441-6.07-0.0744-12.1-0.0964-18.2-0.0101-2.27-0.0237-4.53-0.041-6.8-0.0242-3.25-0.0356-6.5-0.0444-9.75-0.0155-1.53-0.0155-1.53-0.0313-3.08-2.27e-4 -1.41-2.27e-4 -1.41-4.58e-4 -2.85-0.00444-0.831-0.00888-1.66-0.0135-2.52 0.241-2.02 0.241-2.02 2.24-4.02h-1c-0.195-4.3 0.00445-6.01 2-10-10.6 0.33-21.1 0.66-32 1v4c-4.82 0.779-9.44 1.13-14.3 1.13-0.669 9.57e-4 -1.34 0.00191-2.03 0.0029-1.4 6.75e-4 -2.8-0.00113-4.2-0.00534-2.14-0.00538-4.28-2.01e-5 -6.42 0.00635-1.37-6.6e-4 -2.74-0.00194-4.1-0.00391-1.85-0.00169-1.85-0.00169-3.74-0.00342-2.61-0.106-4.72-0.354-7.19-1.13v-3c5.61-0.33 11.2-0.66 17-1-7.59-0.33-15.2-0.66-23-1v-1c15-1.25 30.1-1.15 45.1-1.13 3.67 0.00578 7.34 0.00235 11-0.00357 2.84-0.0036 5.68-0.00247 8.52 1.28e-4 2.01 9.9e-4 4.03-0.00204 6.04-0.00513 1.21 0.00315 2.41 0.0063 3.66 0.00955 1.07 7.96e-4 2.13 0.00159 3.23 0.00241 2.4 0.127 2.4 0.127 3.4 1.13 0.0961 1.67 0.122 3.34 0.12 5.02 0.00137 1.09 0.00275 2.17 0.00417 3.29-0.0036 1.2-0.00719 2.41-0.0109 3.64 1.46e-4 1.26 2.92e-4 2.52 4.43e-4 3.81 2.88e-4 3.46-0.00561 6.92-0.0126 10.4-0.00623 3.61-0.00684 7.23-0.00803 10.8-0.00311 6.85-0.0113 13.7-0.0213 20.5-0.0112 7.79-0.0167 15.6-0.0217 23.4-0.0105 16-0.0283 32.1-0.0503 48.1h-12v-7c1.98-0.731 3.98-1.39 6-2 0.66 0.33 1.32 0.66 2 1 0.197-1.42 0.382-2.83 0.562-4.25 0.104-0.789 0.209-1.58 0.316-2.39 0.236-2.3 0.236-2.3-0.364-4.24-0.54-2.23-0.635-4.14-0.628-6.43 7.55e-5 -0.841 1.51e-4 -1.68 2.29e-4 -2.55 0.00516-0.898 0.0103-1.8 0.0156-2.72 0.00141-0.927 0.00283-1.85 0.00429-2.81 0.00559-2.95 0.0181-5.91 0.0309-8.86 0.00502-2.01 0.00958-4.01 0.0137-6.02 0.011-4.91 0.0283-9.82 0.0488-14.7h-2v9h-3v-9h-2v9h-5l0.0703 3.61c0.0188 1.57 0.037 3.13 0.0547 4.7 0.0168 0.786 0.0335 1.57 0.0508 2.38 0.00967 1.14 0.00967 1.14 0.0195 2.29 0.0105 0.696 0.0209 1.39 0.0317 2.11-0.227 1.9-0.227 1.9-2.23 4.9-0.66-3.3-1.32-6.6-2-10-0.66 3.3-1.32 6.6-2 10-2.3-3.44-2.54-5.94-3-10-0.66 3.3-1.32 6.6-2 10h-1v-5c-1.65 0.66-3.3 1.32-5 2v-2c-1.65 0.66-3.3 1.32-5 2-0.33-1.32-0.66-2.64-1-4h-2c-0.33-0.99-0.66-1.98-1-3h-3c-0.33 0.99-0.66 1.98-1 3-0.33-0.99-0.66-1.98-1-3h-3c-0.33 6.93-0.66 13.9-1 21-2-2-2-2-2.16-4.93 0.0322-1.16 0.0645-2.31 0.0977-3.5 0.147-4.87 0.147-4.87-0.938-9.56h-2v3c-0.99-0.33-1.98-0.66-3-1v-2h-2v3h-2v2h2v3h-2v2h2v5c-2.38-0.188-2.38-0.188-5-1-2.6-4.09-2.16-8.32-2-13-1.32-0.33-2.64-0.66-4-1v-2h-3v2h-2v-2h-3v2h-6v-2c-0.623 0.174-1.25 0.348-1.89 0.527-4.36 0.662-8.54 0.32-12.9 0.0352-0.884-0.0522-1.77-0.104-2.68-0.158-2.17-0.129-4.34-0.266-6.51-0.404-0.33 0.66-0.66 1.32-1 2v-2c-1.09 0.213-1.09 0.213-2.19 0.43-7.45 1.36-14.5 1.84-22.1 1.78-1.16-0.00131-2.33-0.00263-3.53-0.00398-3.81-0.00644-7.62-0.0268-11.4-0.047-2.67-0.00628-5.34-0.0117-8.01-0.0158-6.29-0.0113-12.6-0.032-18.9-0.0569-11.3-0.0445-22.5-0.0777-33.8-0.1-4.57-0.00967-9.14-0.0284-13.7-0.0492-2.41-0.00683-4.81-0.0134-7.22-0.0198-1.07-0.00674-2.15-0.0135-3.25-0.0204-5.88-0.00877-11.6 0.274-17.4 0.984-2.67 0.128-4.87-0.289-7.47-0.882-1.94-0.131-3.88-0.222-5.82-0.281-1.09-0.0374-2.19-0.0748-3.31-0.113-2.29-0.0704-4.58-0.141-6.88-0.211-1.09-0.0374-2.18-0.0748-3.31-0.113-0.995-0.0303-1.99-0.0606-3.01-0.0918-2.36-0.167-4.41-0.526-6.67-1.19v2c-1.98 0.33-3.96 0.66-6 1v-3h-4c-0.33 0.99-0.66 1.98-1 3v-3h-4v3h-4c-0.33 0.99-0.66 1.98-1 3-3.85-0.14-7.71-0.288-11.6-0.438-1.63-0.059-1.63-0.059-3.29-0.119-5.45-0.215-10.8-0.525-16.1-1.44v-3c-0.617 0.0116-1.23 0.0232-1.87 0.0352-5.8 0.0618-11.4-0.292-17.1-1.04-0.33-1.32-0.66-2.64-1-4h-51v-2h36v-2h3v2h2v-2c3.95-0.179 6.6-0.0935 10 2 0.33-0.66 0.66-1.32 1-2v2h4v-3h-100v2c11.5 0.33 23.1 0.66 35 1v2c-7.53 0.745-15 1.11-22.6 1.12-1.16 0.00677-1.16 0.00677-2.34 0.0137-3.54-0.00932-6.69-0.188-10.1-1.14v2c11.5 0.33 23.1 0.66 35 1v1c-9.99 0.602-19.9 1.06-29.9 0.965-6.1-0.00156-12.2 0.403-18.3 0.768-1.3 0.0725-1.3 0.0725-2.63 0.146-0.779 0.0471-1.56 0.0943-2.36 0.143-1.8-0.0217-1.8-0.0217-2.8-1.02-0.0721-1.69-0.0839-3.38-0.0625-5.06 0.00902-0.919 0.018-1.84 0.0273-2.79 0.0116-0.71 0.0232-1.42 0.0352-2.15h-3v9h-2v-9h-3v9c-2-4-2-4-2-6h-3c-0.495-1.48-0.495-1.48-1-3-3.63-0.33-7.26-0.66-11-1v-5h2v-2h3v-2h-2c-0.495-1.48-0.495-1.48-1-3h3v-2h-2v-2h-3v-3h-2c-0.0251-1.14-0.0501-2.27-0.0759-3.44-0.0941-4.21-0.194-8.42-0.296-12.6-0.0433-1.82-0.085-3.65-0.125-5.47-0.0578-2.62-0.121-5.24-0.186-7.86-0.0251-1.22-0.0251-1.22-0.0506-2.47-0.0859-3.28-0.223-6.01-1.27-9.13-0.0697-2.39-0.0845-4.79-0.0625-7.19 0.00902-1.27 0.018-2.54 0.0273-3.86 0.0116-0.976 0.0232-1.95 0.0352-2.96-1.65 0.33-3.3 0.66-5 1v-2h2v-4c-0.66-0.33-1.32-0.66-2-1h2c-0.0303-0.681-0.0606-1.36-0.0918-2.06-0.137-3.08-0.272-6.17-0.408-9.25-0.0715-1.61-0.0715-1.61-0.145-3.25-0.0451-1.03-0.0902-2.06-0.137-3.12-0.0419-0.948-0.0838-1.9-0.127-2.87-0.127-3.39 0.00845-6.19 0.908-9.45-0.66-0.33-1.32-0.66-2-1v-8h-7v-2h-2v-3h-2c0.278-1.11 0.278-1.11 0.562-2.25 0.43-2.7 0.289-4.2-0.562-6.75h2v3h3v2h3v-3h-3v-2h3v-3c-1.32-0.33-2.64-0.66-4-1 0.33-1.32 0.66-2.64 1-4h8v-4h4c-0.0206-1.24-0.0412-2.48-0.0625-3.75-0.00517-2.91 0.132-5.46 1.06-8.25h-2v-29h2v-4c-0.66-0.33-1.32-0.66-2-1h2c-0.185-4.34-0.185-4.34-2-8-0.0406-1.67-0.0427-3.33 0-5h2v-4c-0.66-0.33-1.32-0.66-2-1h2v-4h-2v-16h-3v-29h5v-4c-0.99 0.33-1.98 0.66-3 1-0.99-0.99-0.99-0.99-2-2h5v-12c-0.99-0.33-1.98-0.66-3-1v-7h3v-3h-2v-2h2v-3h-2v-24c-0.99-0.33-1.98-0.66-3-1h3c-0.776-3.07-0.776-3.07-3-5 2.48-0.495 2.48-0.495 5-1v-4c-0.99-0.495-0.99-0.495-2-1h2v-7h-2v-5c-0.99-0.33-1.98-0.66-3-1h3c-0.776-3.07-0.776-3.07-3-5h3v-4h-3v-3h-2c-0.33-0.99-0.66-1.98-1-3h-6v-5c-1.32-0.33-2.64-0.66-4-1 3.9-1.87 6.54-2.14 10.8-1.62 0.976 0.111 1.95 0.222 2.96 0.336 0.736 0.0954 1.47 0.191 2.23 0.289v-2h-3v-3h3v-2h-3v-4c-0.771-0.133-1.54-0.266-2.34-0.402-1-0.177-2.01-0.353-3.04-0.535-1.5-0.261-1.5-0.261-3.02-0.527-2.6-0.535-2.6-0.535-4.6-1.54-0.414-3.16-0.414-3.16-0.625-7.06-0.0748-1.29-0.15-2.58-0.227-3.91-0.049-0.999-0.098-2-0.148-3.03h-8v-9c-3.3-0.66-6.6-1.32-10-2v-1c0.771-0.133 1.54-0.266 2.34-0.402 1-0.177 2.01-0.353 3.04-0.535 0.998-0.174 2-0.348 3.02-0.527 7.76-1.6 7.76-1.6 10.6-1.54z" fill="#D9DCDC"/>
<path transform="translate(1283,289)" d="m0 0c0.99 0.33 1.98 0.66 3 1v5c0.675-0.156 1.35-0.312 2.05-0.473 0.892-0.195 1.78-0.389 2.7-0.59 1.32-0.296 1.32-0.296 2.67-0.598 2.56-0.338 4.15-0.151 6.58 0.66 0.33-1.65 0.66-3.3 1-5h2v3h4c1.71 1.06 1.71 1.06 3 3 0.477 3.25 0.477 3.25 0.625 7 0.193 5.09 0.193 5.09 1.38 10 0.0395 2.33 0.044 4.67 0 7h5c-0.33 0.99-0.66 1.98-1 3-0.99-0.33-1.98-0.66-3-1-0.33 0.99-0.66 1.98-1 3h5c-0.33 0.99-0.66 1.98-1 3h-3c-1 7.89-1.12 15.7-1.06 23.6 0.00677 1.79 0.00677 1.79 0.0137 3.62 0.0117 2.92 0.028 5.84 0.0488 8.75h-2v13c0.66 0.33 1.32 0.66 2 1h-2v4h2v71h-2v12c0.66 0.33 1.32 0.66 2 1h-2v4h2v6h-2v49c0.66 0.33 1.32 0.66 2 1h-2v4c0.66 0.33 1.32 0.66 2 1h-2c0.0236 0.921 0.0236 0.921 0.0476 1.86 0.0632 2.84 0.102 5.68 0.14 8.51 0.0251 0.966 0.0503 1.93 0.0762 2.93 0.0678 6.74-0.952 12.4-3.26 18.7h-5c0.206 0.763 0.412 1.53 0.625 2.31 0.375 2.69 0.375 2.69-1.62 5.69-0.99-0.33-1.98-0.66-3-1-0.33 0.66-0.66 1.32-1 2-1.32-0.66-2.64-1.32-4-2v5c-5.65 3.45-9.13 4.41-15.7 3.55-2.33-0.564-4.2-1.39-6.3-2.55-0.33 0.66-0.66 1.32-1 2-1.32-0.66-2.64-1.32-4-2v2h-11v-2h-3c-0.66 0.66-1.32 1.32-2 2v-2h-3c-0.33 0.66-0.66 1.32-1 2-2.78 0.928-4.45 1.13-7.33 1.13-0.872 0.00315-1.74 0.0063-2.64 0.00955-0.944-0.00202-1.89-0.00405-2.86-0.00613-1.47 0.00144-1.47 0.00144-2.97 0.0029-2.08 6.81e-4 -4.17-0.00117-6.25-0.00534-3.14-0.00528-6.28-8.95e-5 -9.42 0.00635-27.4 0.0125-27.4 0.0125-37.3-2.17-5.09-1.05-9.92-1.21-15.1-1.13-0.916 0.00556-1.83 0.0111-2.77 0.0169-1.94 0.0123-3.88 0.0289-5.83 0.0495-5.03 0.0526-10.1 0.0719-15.1 0.0898-0.986 0.00394-1.97 0.00788-2.99 0.0119-11.5 0.028-22.9-0.379-34.4-1.01v-4c4.62-0.33 9.24-0.66 14-1v-4c9.94-1.03 19.9-1.21 29.8-1.32 1.74-0.0207 3.48-0.0418 5.22-0.0631 4.63-0.0554 9.26-0.105 13.9-0.153 2.87-0.0301 5.74-0.0619 8.6-0.0942 31.5-0.354 63-0.508 94.4-0.373 0.33-0.99 0.66-1.98 1-3 0.99-0.66 1.98-1.32 3-2 2.12 0.438 2.12 0.438 4 1 0.33-0.33 0.66-0.66 1-1 1.67-0.0406 3.33-0.0427 5 0v-2c-1.98 0.33-3.96 0.66-6 1-1.19-3.57-0.735-5.51-0.0625-9.19 0.292-1.63 0.292-1.63 0.59-3.29 0.234-1.25 0.234-1.25 0.473-2.52h-4v14h-3c-0.212-5.19 0.409-9.13 2-14h-4v14c-2.97 1.48-5.4 0.802-8.69 0.5-5.27-0.435-10.2-0.441-15.5 0.0625-9.37 0.797-18.5-0.42-27.8-1.56v-3c-0.99-0.33-1.98-0.66-3-1h13v-3c-0.603 0.0954-1.21 0.191-1.83 0.289-0.799 0.111-1.6 0.222-2.42 0.336-1.18 0.174-1.18 0.174-2.39 0.352-2.68 0.0266-4.09-0.611-6.36-1.98v-1h13v-3h-87v7c-2.56 0.0271-5.12 0.0469-7.69 0.0625-0.721 0.00838-1.44 0.0168-2.19 0.0254-3.84 0.0175-7.39-0.153-11.1-1.09v-6c-2.19-1.1-3.71-1.27-6.14-1.5-0.824-0.0825-1.65-0.165-2.5-0.25-0.862-0.0825-1.72-0.165-2.61-0.25-5.29-0.515-10.5-1.04-15.8-2v-8h2v-4l-2-1h2v-5h-2c-0.943-5.3-1.05-10.4-0.938-15.7 0.197-2.23 0.197-2.23-1.06-3.26-0.16-2.66-0.259-5.31-0.316-7.97-0.0208-0.798-0.0416-1.6-0.063-2.42-0.0656-2.56-0.124-5.12-0.183-7.67-0.0432-1.73-0.0868-3.46-0.131-5.19-0.107-4.25-0.209-8.5-0.307-12.7h-6v-2h-5c0-11.5 0-11.5 2-16 0.99 0.33 1.98 0.66 3 1 0.33-0.66 0.66-1.32 1-2h2c-1.65-0.66-3.3-1.32-5-2l2-2c2.62 0.375 2.62 0.375 5 1v-7c-0.99-0.33-1.98-0.66-3-1 1.98-0.33 3.96-0.66 6-1v-4l-2-1h2c-0.33-2.31-0.66-4.62-1-7h2v-4l-2-1h2c-0.141-1.63-0.288-3.25-0.438-4.88-0.0812-0.905-0.162-1.81-0.246-2.74-0.186-2.39-0.186-2.39-1.32-4.38-0.14-2.59-0.0349-4.83 0.5-7.38 0.722-3.79 1.04-7.7-0.00781-11.4-0.645-2.85-0.548-5.5-0.492-8.43 0.0454-5.04-0.22-9.78-1-14.8h-12c0.33-1.65 0.66-3.3 1-5 0.33 0.66 0.66 1.32 1 2 0.908-0.186 1.82-0.371 2.75-0.562 2.93-0.395 4.51-0.384 7.25 0.562v-3c-1.32-0.33-2.64-0.66-4-1-0.33 0.66-0.66 1.32-1 2-1.48-0.495-1.48-0.495-3-1-0.495 0.99-0.495 0.99-1 2-0.33-1.32-0.66-2.64-1-4h10c0.33-1.98 0.66-3.96 1-6-8.41 0.495-8.41 0.495-17 1-1.66-3.33-0.819-7-0.562-10.6 0.0522-0.802 0.104-1.6 0.158-2.43 0.13-1.98 0.266-3.96 0.404-5.95 0.771 0.0116 1.54 0.0232 2.34 0.0352 1.5 0.0135 1.5 0.0135 3.04 0.0273 1.5 0.0174 1.5 0.0174 3.02 0.0352 2.59 0.0824 2.59 0.0824 4.6-1.1v2h3c0.33-0.66 0.66-1.32 1-2h-2v-5h-3c-0.33 1.65-0.66 3.3-1 5h-1v-5c-1.65-0.33-3.3-0.66-5-1 0.99-0.495 0.99-0.495 2-1-0.33-2.64-0.66-5.28-1-8h-3c-0.155-0.959-0.155-0.959-0.312-1.94-0.227-0.681-0.454-1.36-0.688-2.06-0.99-0.33-1.98-0.66-3-1-1.07-2.82-1-4.91-1-8-1.98-0.66-3.96-1.32-6-2 1-3 1-3 2.62-3.93 8.93-2.87 18-2.51 27.2-2.5 1.9-0.00903 3.81-0.0194 5.71-0.0309 5.14-0.0275 10.3-0.0368 15.4-0.0429 5.38-0.00941 10.8-0.0356 16.1-0.06 10.2-0.0436 20.4-0.0722 30.5-0.0953 11.6-0.0271 23.2-0.071 34.8-0.116 23.8-0.0928 47.7-0.164 71.5-0.222v3h3v-2h2v2h3v-2h5c0.186-1.21 0.186-1.21 0.375-2.44 0.206-0.846 0.412-1.69 0.625-2.56 0.66-0.33 1.32-0.66 2-1z" fill="#D9DCDC"/>
<path transform="translate(334 294)" d="m0 0c1.04 0.00484 1.04 0.00484 2.1 0.00979 2.33 0.0121 4.65 0.0315 6.98 0.0508 1.67 0.0101 3.33 0.0198 5 0.0291 4.53 0.0265 9.05 0.0593 13.6 0.0931 4.73 0.0343 9.46 0.0629 14.2 0.0921 8.96 0.0562 17.9 0.118 26.9 0.181 10.2 0.0717 20.4 0.138 30.6 0.203 21 0.135 42 0.277 62.9 0.424v2c0.759-0.0232 1.52-0.0464 2.3-0.0703 0.994-0.018 1.99-0.0361 3.01-0.0547 0.986-0.0232 1.97-0.0464 2.99-0.0703 2.7 0.195 2.7 0.195 5.7 2.2v-2c1.65 0.66 3.3 1.32 5 2 0.33-0.99 0.66-1.98 1-3 1.65 0.33 3.3 0.66 5 1 0.33-0.66 0.66-1.32 1-2 0.33 0.66 0.66 1.32 1 2 1.65-0.33 3.3-0.66 5-1v2c3.07-0.776 3.07-0.776 5-3 0.99 2.48 0.99 2.48 2 5-0.66 0.33-1.32 0.66-2 1 0.0116 0.603 0.0232 1.21 0.0352 1.83 0.00902 0.799 0.018 1.6 0.0273 2.42 0.0116 0.789 0.0232 1.58 0.0352 2.39-0.0938 2.27-0.465 4.19-1.1 6.36h-3c0.0838 0.568 0.168 1.14 0.254 1.72 0.665 5.04 0.703 9.28-0.254 14.3h-2v7c0.66 0.33 1.32 0.66 2 1-0.99 0.495-0.99 0.495-2 1v3h2v3c0.66 0.33 1.32 0.66 2 1-0.308 3.9-0.622 7.79-0.938 11.7-0.087 1.1-0.174 2.21-0.264 3.34-0.131 1.6-0.131 1.6-0.264 3.23-0.0786 0.979-0.157 1.96-0.238 2.97-0.297 2.77-0.297 2.77-0.858 5.42-0.61 3.26 0.0649 6.08 0.561 9.35 0.0962 2.77 0.0514 5.54 0 8.31-0.301 4.99-0.301 4.99 1 9.69 0.07 1.71 0.0844 3.42 0.0625 5.12-0.00902 0.91-0.018 1.82-0.0273 2.76-0.0174 1.05-0.0174 1.05-0.0352 2.12-1.98 0.99-1.98 0.99-4 2v2c0.66 0.33 1.32 0.66 2 1-0.66 0.66-1.32 1.32-2 2v2c0.66 0.33 1.32 0.66 2 1h-5v8c1.32-0.99 2.64-1.98 4-3 0.33 1.32 0.66 2.64 1 4-1.65 0.33-3.3 0.66-5 1v3c2.48-0.99 2.48-0.99 5-2v2c1.32-0.99 2.64-1.98 4-3 0.188 3.31 0.188 3.31 0 7-0.713 0.69-0.713 0.69-1.44 1.39-2.13 2.19-2.23 3.99-2.68 6.98-0.147 0.936-0.294 1.87-0.445 2.84-0.142 0.92-0.284 1.84-0.43 2.79-0.325 1.67-0.655 3.34-1 5 0.99 0.33 1.98 0.66 3 1h-2v4h2c1.23 3.83 1.19 7.65 1.19 11.6-8.06e-5 0.735-1.61e-4 1.47-2.44e-4 2.23-0.0577 5.75-0.491 11.4-1.12 17.1-0.0868 0.783-0.174 1.57-0.263 2.37-0.663 5.49-0.663 5.49-1.8 6.63-0.158 1.78-0.251 3.56-0.316 5.35-0.0419 1.08-0.0838 2.16-0.127 3.27-0.0393 1.14-0.0786 2.27-0.119 3.44-0.0648 1.71-0.0648 1.71-0.131 3.46-0.106 2.83-0.208 5.65-0.307 8.48h5c0.33 0.99 0.66 1.98 1 3-0.33 0.33-0.66 0.66-1 1-0.397 2.35-0.744 4.7-1.06 7.06-0.177 1.29-0.353 2.58-0.535 3.91-0.133 0.999-0.266 2-0.402 3.03-0.33-0.99-0.66-1.98-1-3-2.48 0.99-2.48 0.99-5 2v-2c-1.65 0.33-3.3 0.66-5 1v3h7v4c-0.99-0.33-1.98-0.66-3-1h-3v1c1.98 0.33 3.96 0.66 6 1-0.33 1.65-0.66 3.3-1 5-0.33-0.99-0.66-1.98-1-3h-6c-1-3-1-3-2-10h-150v3h4v2h-4v3c1.32 0.33 2.64 0.66 4 1-1.98 0.33-3.96 0.66-6 1 0.33-1.65 0.66-3.3 1-5h-4v4h-2v-4h-3v4c-2.64 0.33-5.28 0.66-8 1v-2h2v-3h-2v-2h2v-3c-0.908 0.186-1.81 0.371-2.75 0.562-3.25 0.438-3.25 0.438-7.25-0.562v9c-0.33-1.32-0.66-2.64-1-4h-4v-5c-0.681 0.186-1.36 0.371-2.06 0.562-3.51 0.522-6.45-0.00812-9.94-0.562-0.0606-1.28-0.121-2.55-0.184-3.87-0.0844-1.67-0.169-3.34-0.254-5.01-0.0393-0.842-0.0786-1.68-0.119-2.55-0.0419-0.806-0.0838-1.61-0.127-2.44-0.0367-0.744-0.0733-1.49-0.111-2.25-0.105-1.97-0.105-1.97-1.21-3.88-0.0834-1.45-0.107-2.9-0.0977-4.35 0.00322-0.851 0.00645-1.7 0.00977-2.58 0.0126-1.33 0.0126-1.33 0.0254-2.7 0.00451-0.897 0.00902-1.79 0.0137-2.72 0.0118-2.22 0.0283-4.44 0.0488-6.66h-5v-7h4v-3c-1.32-0.66-2.64-1.32-4-2h4v-31h-4v-6h4v-3c-1.32-0.66-2.64-1.32-4-2h4v-18h-4v-3h4v-3c-1.32-0.66-2.64-1.32-4-2h4v-60h-4v-11h5v-3c-1.98-0.33-3.96-0.66-6-1v5h-4v-6h10c-0.186-1.15-0.371-2.31-0.562-3.5-0.392-3.04-0.393-5.66 0.0625-8.69 0.446-3.4 0.415-5.56-0.5-8.81h-10v5h-2c-0.027-2.75-0.0468-5.5-0.0625-8.25-0.00838-0.777-0.0168-1.55-0.0254-2.36-0.00322-0.754-0.00645-1.51-0.00977-2.29-0.00524-0.691-0.0105-1.38-0.0159-2.09 0.114-2.01 0.114-2.01 1.11-6.01h10v-3h-3v2c-3-1-3-1-5-2v2h-2c-0.33-1.32-0.66-2.64-1-4 0.855-0.049 1.71-0.098 2.59-0.148 1.1-0.0748 2.21-0.15 3.35-0.227 1.65-0.104 1.65-0.104 3.34-0.211 1.35-0.205 1.35-0.205 2.72-0.414 0.33-0.66 0.66-1.32 1-2h-6v-2h-3c-0.33 0.66-0.66 1.32-1 2v-3c-2.47 1.15-4.05 2.05-6 4v-5h6c0.33-0.66 0.66-1.32 1-2v2h4v3c2.97-0.342 2.97-0.342 6-1 0.33-0.66 0.66-1.32 1-2h2v-2c3.47-1.16 6.12-1.11 9.78-1.08z" fill="#D9DCDC"/>
<path transform="translate(294,87)" d="m0 0h1036c-0.33 0.66-0.66 1.32-1 2v37h-1035c-1.55-3.1-1.14-6.38-1.13-9.78-9.57e-4 -0.769-0.00191-1.54-0.0029-2.33-6.81e-4 -1.63 0.00117-3.25 0.00534-4.88 0.00535-2.5 5.19e-5 -4.99-0.00635-7.49 6.61e-4 -1.58 0.00194-3.16 0.00391-4.74-0.00202-0.749-0.00405-1.5-0.00613-2.27 0.024-5.28 0.024-5.28 1.14-7.51z" fill="#D0D4D5"/>
<path transform="translate(144 173)" d="m0 0c7.31 0.00356 14.6 0.00107 21.9-0.00146 13.6-0.00456 27.3-0.00447 40.9-0.00172 13.8 0.00277 27.6 0.00332 41.4 0.00126 0.876-1.29e-4 1.75-2.58e-4 2.66-3.91e-4 3.57-5.33e-4 7.14-0.00108 10.7-0.00165 33.1-0.00527 66.3-0.00566 99.4-0.00285 31.9 0.0027 63.8 0.00375 95.8 0.00248 2.01-7.75e-5 4.02-1.55e-4 6.03-2.31e-4 8.07-3.1e-4 16.1-6.29e-4 24.2-9.6e-4 22.6-9.17e-4 45.1-0.00149 67.7-0.00179 1.03-1.36e-5 2.05-2.73e-5 3.11-4.14e-5 32.7-4.09e-4 65.4 7.16e-4 98.1 0.00289 1.06 7.02e-5 2.12 1.4e-4 3.21 2.13e-4 17.2 0.00114 34.4 0.00236 51.6 0.00359 68.3 0.00486 137 0.00463 205-2.31e-4 17.2-0.00122 34.4-0.00243 51.6-0.00357 1.06-7.04e-5 2.12-1.41e-4 3.21-2.13e-4 32.7-0.00216 65.4-0.00307 98.1-0.00264 1.54 2.04e-5 1.54 2.04e-5 3.11 4.12e-5 22.5 3.13e-4 45.1 9.46e-4 67.6 0.00187 8.06 3.29e-4 16.1 6.42e-4 24.2 9.51e-4 2.01 7.74e-5 4.01 1.56e-4 6.02 2.36e-4 31.9 0.00127 63.8-1.52e-4 95.7-0.00285 33-0.00276 66.1-0.00173 99.1 0.00353 3.55 5.52e-4 7.11 0.00109 10.7 0.00161 0.872 1.3e-4 1.74 2.6e-4 2.64 3.95e-4 13.8 0.00197 27.5 6.06e-4 41.3-0.00216 13.6-0.00266 27.1-0.0017 40.7 0.00301 7.24 0.00242 14.5 0.00332 21.7-4.06e-4 26.9-0.0131 53.8 0.0157 80.7 1.13v62h-2v-3c-1.65 0.33-3.3 0.66-5 1v-4h-5v-7h2c-0.33-1.32-0.66-2.64-1-4 1.98-0.66 3.96-1.32 6-2h-3c-0.33-0.33-0.66-0.66-1-1-1.67-0.0406-3.33-0.0427-5 0-0.33 0.66-0.66 1.32-1 2v-5c0.71-0.0606 1.42-0.121 2.15-0.184 0.919-0.0838 1.84-0.168 2.79-0.254 0.917-0.0812 1.83-0.162 2.78-0.246 2.25-0.0769 2.25-0.0769 3.29-1.32h-6v-7h5v-3h-3v-2h4c0.33 0.33 0.66 0.66 1 1 0.33-5.94 0.66-11.9 1-18h-5c0.66-1.32 1.32-2.64 2-4-4.29-0.33-8.58-0.66-13-1v5c-44.6 0.113-89.1 0.224-134 0.328-0.661 0.00155-1.32 0.0031-2 0.00469-14.4 0.0336-28.7 0.067-43.1 0.1-7.04 0.0163-14.1 0.0326-21.1 0.0489-0.701 0.00163-1.4 0.00325-2.12 0.00493-22.7 0.0526-45.4 0.109-68 0.166-24 0.0611-48 0.118-72 0.171-14.4 0.0319-28.7 0.0669-43.1 0.106-9.86 0.0265-19.7 0.0491-29.6 0.0687-5.68 0.0114-11.4 0.0244-17 0.0422-43.7 0.134-43.7 0.134-63.3-1.04v-3c-10.2-0.33-20.5-0.66-31-1 0.33 2.64 0.66 5.28 1 8 0.0347 1.67 0.0521 3.33 0 5h-3v2h-5v-2c-0.99-0.33-1.98-0.66-3-1 1.32-0.66 2.64-1.32 4-2v-10c-11.2-0.91-22.3-1.15-33.5-1.13-1.72-6.75e-4 -3.45-0.00165-5.17-0.0029-3.58-0.00146-7.16 6.27e-4 -10.7 0.00534-4.59 0.00576-9.19 0.00237-13.8-0.00357-3.54-0.0036-7.09-0.00247-10.6 1.28e-4 -1.7 6.68e-4 -3.39-1.54e-4 -5.09-0.00248-2.35-0.00252-4.7 0.00131-7.06 0.0069-1.05-0.00304-1.05-0.00304-2.13-0.00613-3.23-0.26-3.23-0.26-5.91 1.14-1.38 0.0928-2.77 0.117-4.15 0.114-0.881-7.55e-5 -1.76-1.51e-4 -2.67-2.29e-4 -0.957-0.00516-1.91-0.0103-2.9-0.0156-0.975-0.00141-1.95-0.00283-2.96-0.00429-3.13-0.00562-6.26-0.0182-9.38-0.0309-2.12-0.00501-4.23-0.00958-6.35-0.0137-5.2-0.0111-10.4-0.0278-15.6-0.0488-0.33 0.66-0.66 1.32-1 2-2-1-2-1-3-2v4h-2v7h-9c-0.33 0.66-0.66 1.32-1 2v-8c-0.932 0.00222-1.86 0.00444-2.82 0.00673-8.91 0.0205-17.8 0.0354-26.7 0.0451-4.58 0.00515-9.15 0.0121-13.7 0.0236-20.6 0.0505-41.1 0.00194-61.7-1.08v-3c-10.2-0.33-20.5-0.66-31-1v4h-2v2h2v3h-2v2c0.66 0.33 1.32 0.66 2 1-1.56 1.63-1.56 1.63-4 3-3.5-0.812-3.5-0.812-7-2h-4c-0.186-1.21-0.186-1.21-0.375-2.44-0.206-0.846-0.412-1.69-0.625-2.56-0.66-0.33-1.32-0.66-2-1h2c0.33-0.99 0.66-1.98 1-3 0.66 0.33 1.32 0.66 2 1v2h2v-2c1.65-0.66 3.3-1.32 5-2-1.62-3.18-1.62-3.18-4.16-3.45-0.883-0.0325-1.77-0.0651-2.68-0.0986-0.982-0.04-1.96-0.0799-2.97-0.121-1.03-0.0271-2.06-0.0541-3.12-0.082-0.996-0.0425-1.99-0.0851-3.02-0.129-5.98-0.209-11.7 0.0174-17.7 0.749-2.37 0.13-2.37 0.13-4.17-0.354-2.68-0.627-5.12-0.643-7.88-0.646-1.71-0.00473-1.71-0.00473-3.45-0.00955-1.22 0.00202-2.45 0.00405-3.71 0.00613-1.26-9.57e-4 -2.51-0.00191-3.81-0.0029-2.66-6.8e-4 -5.31 6.62e-4 -7.97 0.00534-3.41 0.00571-6.82 0.0024-10.2-0.00357-3.25-0.00447-6.5-0.00135-9.74 0.00113-1.23-0.00202-2.46-0.00405-3.72-0.00613-1.13 0.00315-2.26 0.0063-3.42 0.00955-0.998 7.96e-4 -2 0.00159-3.03 0.00241-2.23-0.126-2.23-0.126-3.26 1.13-2.54 0.101-5.04 0.14-7.58 0.133-1.15 0.00144-1.15 0.00144-2.31 0.0029-1.62 6.82e-4 -3.24-0.00117-4.86-0.00534-2.47-0.00532-4.94-7.12e-5 -7.41 0.00635-1.57-6.61e-4 -3.15-0.00194-4.72-0.00391-0.737 0.00202-1.47 0.00405-2.23 0.00613-3.75-0.017-7.23-0.239-10.9-1.14-0.33 0.99-0.66 1.98-1 3-0.33-0.99-0.66-1.98-1-3h-3v5h-9c-0.33 2.97-0.66 5.94-1 9-0.66-0.66-1.32-1.32-2-2 0.375-3.63 0.375-3.63 1-7-0.697 0.0302-1.39 0.0604-2.11 0.0915-24 0.997-47.9 1.02-71.9 0.94-5.7-0.0169-11.4-0.0275-17.1-0.0389-9.83-0.0205-19.7-0.0449-29.5-0.0721-14.2-0.0392-28.4-0.0725-42.6-0.104-23.1-0.0518-46.1-0.108-69.2-0.168-22.4-0.0579-44.8-0.113-67.2-0.166-0.692-0.00163-1.38-0.00325-2.1-0.00493-6.95-0.0163-13.9-0.0326-20.9-0.0488-58.1-0.136-116-0.279-174-0.428v-4c-0.759 0.0116-1.52 0.0232-2.3 0.0352-0.994 0.00902-1.99 0.018-3.01 0.0273-0.986 0.0116-1.97 0.0232-2.99 0.0352-2.7-0.0977-2.7-0.0977-5.7-1.1-1.56-0.0674-3.13-0.0851-4.69-0.0625-0.808 0.00902-1.62 0.018-2.45 0.0273-0.615 0.0116-1.23 0.0232-1.86 0.0352-0.33-0.66-0.66-1.32-1-2 8.76-1.19 17.5-1.35 26.4-1.55 0.878-0.021 1.76-0.042 2.66-0.0636 24.7-0.574 49.3-0.524 74-0.511z" fill="#D9DCDC"/>
<path transform="translate(657,38)" d="m0 0h271c-0.33 0.66-0.66 1.32-1 2-0.0868 2.77-0.116 5.52-0.0977 8.29 0.00141 0.818 0.00283 1.64 0.00429 2.48 0.00561 2.62 0.0182 5.24 0.0309 7.86 0.00501 1.77 0.00958 3.55 0.0137 5.32 0.011 4.35 0.0283 8.7 0.0488 13.1-2.95 0.847-5.56 1.13-8.63 1.13-0.93 0.00322-1.86 0.00645-2.82 0.00977-1.53-0.00232-1.53-0.00232-3.09-0.00469-1.08 0.00227-2.17 0.00453-3.29 0.00687-3.65 0.00635-7.29 0.00551-10.9 0.00469-2.61 0.00299-5.22 0.00639-7.82 0.0102-6.36 0.00831-12.7 0.0111-19.1 0.0116-5.16 4.75e-4 -10.3 0.00253-15.5 0.0057-14.6 0.00881-29.3 0.0134-43.9 0.0127-1.18-5.99e-5 -1.18-5.99e-5 -2.39-1.21e-4 -1.18-6.13e-5 -1.18-6.13e-5 -2.39-1.24e-4 -12.8-4.07e-4 -25.6 0.00917-38.4 0.0233-13.1 0.0143-26.3 0.0213-39.4 0.0204-7.38-3.33e-4 -14.8 0.00244-22.2 0.0132-6.94 0.01-13.9 0.00979-20.8 0.00248-2.55-0.00105-5.11 0.00135-7.66 0.00736-3.47 0.00765-6.94 0.00312-10.4-0.00463-1.02 0.00514-2.05 0.0103-3.1 0.0156-0.925-0.0046-1.85-0.0092-2.8-0.0139-0.802 2.17e-4 -1.6 4.35e-4 -2.43 6.59e-4 -1.94-0.25-1.94-0.25-3.94-2.25-0.187-2.62-0.256-5.13-0.23-7.75 6.87e-4 -1.15 6.87e-4 -1.15 0.00139-2.32 0.00302-1.62 0.0109-3.25 0.0233-4.87 0.0182-2.48 0.0205-4.97 0.0203-7.45 0.00492-1.58 0.0107-3.15 0.0176-4.73 0.00111-0.744 0.00223-1.49 0.00337-2.25 0.0289-3.14 0.165-5.62 1.16-8.62z" fill="#D1D5D6"/>
<path transform="translate(560,135)" d="m0 0h178c-0.33 10.2-0.66 20.5-1 31h-177c-1.05-3.14-1.13-5.36-1.13-8.66-0.00129-1.1-0.00258-2.21-0.00391-3.35 0.00387-1.15 0.00773-2.31 0.0117-3.5-0.00387-1.15-0.00773-2.31-0.0117-3.5 0.00129-1.1 0.00258-2.21 0.00391-3.35 0.00113-1.01 0.00226-2.03 0.00342-3.07 0.129-2.59 0.129-2.59 1.13-5.59z" fill="#CFD3D4"/>
<path transform="translate(858,135)" d="m0 0c3.01-0.369 3.01-0.369 6.96-0.361 0.724-0.00256 1.45-0.00513 2.2-0.00777 2.44-0.00496 4.88 0.0116 7.32 0.028 1.74 8.46e-4 3.49 3.72e-4 5.23-0.00133 4.75-8.63e-4 9.49 0.0168 14.2 0.0377 4.96 0.0187 9.91 0.0205 14.9 0.0241 9.39 0.00934 18.8 0.034 28.2 0.064 10.7 0.0335 21.4 0.05 32.1 0.0651 22 0.0314 44 0.0842 66 0.151-0.33 0.66-0.66 1.32-1 2v29h-177c-1.67-5.02-1.18-10.2-1.19-15.5-0.0122-1.15-0.0245-2.31-0.0371-3.5-0.00193-1.1-0.00387-2.21-0.00586-3.35-0.00411-1.01-0.00822-2.03-0.0125-3.07 0.243-2.59 0.243-2.59 2.24-5.59z" fill="#CFD3D4"/>
<path transform="translate(871 268)" d="m0 0c1.02 1.2e-5 2.04 2.41e-5 3.1 3.64e-5 5.17 6.29e-5 10.3 1.35e-4 15.5 2.07e-4 1.03 1.43e-5 2.05 2.86e-5 3.11 4.33e-5 2.07 3.13e-5 4.15 6.65e-5 6.22 1.06e-4 32.8 6e-4 65.6-0.00714 98.4-0.0206 37.5-0.0153 75-0.024 112-0.023 3.98 7.46e-5 7.96 1.23e-4 11.9 1.54e-4 0.979 1.17e-5 1.96 2.33e-5 2.97 3.53e-5 15.6 3.06e-5 31.3-0.0063 46.9-0.015 15.6-0.00845 31.1-0.00949 46.7-0.00289 9.21 0.0037 18.4 0.00186 27.6-0.00794 6.14-0.00599 12.3-0.00472 18.4 0.00247 3.5 0.00389 6.99 0.00464 10.5-0.00346 3.76-0.00703 7.53-0.00179 11.3 0.00656 1.08-0.00497 2.16-0.00994 3.27-0.0151 6.47 0.0304 12.4 0.737 18.7 2.26v2h-999v-3c83.8-0.436 168-0.808 562-1.19z" fill="#D9DCDC"/>
<path transform="translate(908 87.8)" d="m0 0c0.654-0.00261 1.31-0.00521 1.98-0.0079 2.21-0.00633 4.41 0.00168 6.62 0.00955 1.59-0.00159 3.18-0.00405 4.77-0.00732 4.39-0.00643 8.77-3.29e-4 13.2 0.00776 4.73 0.00656 9.45 0.00163 14.2-0.00188 9.27-0.00505 18.5 6.12e-4 27.8 0.00985 10.8 0.0104 21.6 0.0103 32.4 0.00983 19.3-5.01e-4 38.6 0.00867 57.8 0.0232 18.7 0.0141 37.4 0.0212 56.1 0.0205 1.15-4e-5 2.3-7.99e-5 3.48-1.21e-4 1.15-4.04e-5 2.29-8.07e-5 3.48-1.22e-4 21.3-6.91e-4 42.6 0.00521 63.8 0.0142 7.52 0.00301 15 0.00408 22.6 0.00453 9.18 6.85e-4 18.4 0.00518 27.5 0.0143 4.68 0.00459 9.36 0.00767 14 0.00641 4.29-0.00111 8.59 0.00249 12.9 0.00965 1.54 0.00179 3.09 0.00196 4.63 2.33e-4 10.2-0.0101 20.2 0.392 30.4 1.14v1h-14v5c-2.81 1.4-5.12 1.12-8.26 1.12-0.652 0.00115-1.3 0.00231-1.98 0.0035-2.21 0.00267-4.41-0.00186-6.62-0.00629-1.59 4.36e-4 -3.18 0.00131-4.77 0.00259-4.39 0.00225-8.77-0.00178-13.2-0.00678-4.72-0.0043-9.45-0.00286-14.2-0.0021-8.19 5.25e-4 -16.4-0.00262-24.6-0.00824-11.8-0.00811-23.7-0.0107-35.5-0.012-19.2-0.00219-38.4-0.00885-57.6-0.0183-18.7-0.00917-37.3-0.0163-56-0.0205-1.15-2.63e-4 -2.3-5.25e-4 -3.48-7.96e-4 -5.77-0.00131-11.5-0.00257-17.3-0.00381-47.9-0.0104-95.7-0.028-144-0.0503-0.33-1.98-0.66-3.96-1-6h-5c3.58-2.39 5.13-2.25 9.38-2.25z" fill="#D9DCDC"/>
<path transform="translate(292,265)" d="m0 0c86.7-0.015 173-0.0299 297-0.0423 1.48-1.39e-4 2.96-2.79e-4 4.44-4.18e-4 31.1-0.00292 62.2-0.00564 93.2-0.00812 15.6-0.00125 31.2-0.00253 46.8-0.00385 2.35-1.99e-4 4.71-3.97e-4 7.06-5.95e-4 36.3-0.00306 72.5-0.00697 109-0.0133 0.78-1.37e-4 1.56-2.74e-4 2.36-4.15e-4 12.6-0.00221 25.2-0.0045 37.7-0.00679 36.2-0.0066 72.4-0.0127 109-0.0153 1.12-8.03e-5 1.12-8.03e-5 2.26-1.62e-4 16.3-0.00117 32.7-0.00206 49-0.0027 6.57-2.62e-4 13.1-5.62e-4 19.7-8.76e-4 1.08-5.01e-5 1.08-5.01e-5 2.18-1.01e-4 23.2-0.0011 46.4-0.00537 69.6-0.0113 24-0.00612 48-0.00873 72-0.00722 13.9 7.64e-4 27.7-0.00129 41.6-0.0073 9.24-0.00373 18.5-0.00388 27.7-0.00103 5.28 0.00152 10.6 0.0014 15.8-0.00305 4.79-0.00402 9.58-0.00352 14.4 7.43e-4 1.73 7.2e-4 3.46-2.74e-4 5.19-0.0031 2.33-0.00356 4.67-0.00108 7 0.00304 1.95-2.34e-4 1.95-2.34e-4 3.93-4.73e-4 2.99 0.125 2.99 0.125 4.99 1.12-0.33 0.99-0.66 1.98-1 3h-1042c0.33-1.32 0.66-2.64 1-4z" fill="#000002"/>
<path transform="translate(293,270)" d="m0 0c0.66 0.33 1.32 0.66 2 1 0.395 2.58 0.508 5.14 0.656 7.75 0.113 0.743 0.227 1.49 0.344 2.25 0.66 0.33 1.32 0.66 2 1 0.899 15.5 1.14 30.9 1.11 46.4-2.83e-4 2.48-1.22e-4 4.95 4.43e-4 7.43 2.26e-4 5.28-0.00256 10.6-0.00824 15.9-0.0082 7.64-0.0107 15.3-0.012 22.9-0.00218 12.4-0.0088 24.8-0.0183 37.2-0.00921 12-0.0163 24.1-0.0205 36.1-2.63e-4 0.744-5.25e-4 1.49-7.96e-4 2.26-0.00131 3.73-0.00257 7.47-0.00381 11.2-0.0103 30.9-0.028 61.8-0.0503 92.6 0.66-0.66 1.32-1.32 2-2v11c-0.66-0.33-1.32-0.66-2-1-0.33 1.98-0.66 3.96-1 6h-3c0.0116 1.18 0.0232 2.36 0.0352 3.58 0.00938 1.56 0.0185 3.11 0.0273 4.67 0.00838 0.777 0.0168 1.55 0.0254 2.36 0.00322 0.754 0.00645 1.51 0.00977 2.29 0.00524 0.691 0.0105 1.38 0.0159 2.09-0.119 2.11-0.537 3.98-1.11 6.01h-3c-1-3.01-1.12-5-1.12-8.15-0.00199-1.07-0.00398-2.14-0.00603-3.25 0.00437-1.77 0.00437-1.77 0.00883-3.58-8.54e-4 -1.25-0.00171-2.5-0.00259-3.79-0.00224-3.48 0.00177-6.96 0.00678-10.4 0.00431-3.75 0.00286-7.51 0.0021-11.3-5.25e-4 -6.5 0.00262-13 0.00824-19.5 0.00812-9.4 0.0107-18.8 0.012-28.2 0.00219-15.3 0.00885-30.5 0.0183-45.8 0.00918-14.8 0.0163-29.6 0.0205-44.5 2.63e-4 -0.913 5.25e-4 -1.83 7.96e-4 -2.77 0.00131-4.58 0.00257-9.16 0.00381-13.7 0.0104-38 0.028-76 0.0503-114 0.66 1.32 1.32 2.64 2 4 0.33-4.62 0.66-9.24 1-14z" fill="#D9DCDC"/>
<path transform="translate(351 87.9)" d="m0 0c2.79-0.00246 5.57-0.00637 8.36-0.0102 6.73-0.00823 13.5-0.0111 20.2-0.0116 5.47-4.78e-4 10.9-0.00254 16.4-0.0057 15.5-0.00878 31.1-0.0134 46.6-0.0127 1.25 5.99e-5 1.25 5.99e-5 2.53 1.21e-4 0.835 4.09e-5 1.67 8.18e-5 2.53 1.24e-4 13.6 4.08e-4 27.2-0.00921 40.7-0.0233 14-0.0143 27.9-0.0213 41.9-0.0204 7.83 3.32e-4 15.7-0.00242 23.5-0.0132 6.65-0.00908 13.3-0.0113 20-0.00449 3.39 0.00328 6.79 0.00328 10.2-0.00535 3.67-0.00766 7.35-0.00312 11 0.00463 1.08-0.00514 2.16-0.0103 3.27-0.0156 0.98 0.0046 1.96 0.0092 2.97 0.0139 0.848-2.17e-4 1.7-4.35e-4 2.57-6.59e-4 2.17 0.25 2.17 0.25 5.17 2.25 2.33 0.0791 4.67 0.088 7 0-0.33-0.66-0.66-1.32-1-2 4.94-0.0249 9.89-0.043 14.8-0.0549 1.68-0.00499 3.36-0.0118 5.03-0.0205 8.78-0.0444 17.4-0.0529 26.1 1.08-0.33 0.66-0.66 1.32-1 2-2.31-0.33-4.62-0.66-7-1-0.33 1.32-0.66 2.64-1 4-0.99-0.99-1.98-1.98-3-3-0.103 0.639-0.206 1.28-0.312 1.94-0.34 1.02-0.34 1.02-0.688 2.06-3.07 1.02-5.15 1.12-8.37 1.12-1.12 0.00199-2.24 0.00398-3.4 0.00603-1.24-0.00291-2.47-0.00583-3.75-0.00883-1.31 8.54e-4 -2.62 0.00171-3.97 0.00259-3.64 0.00224-7.28-0.00177-10.9-0.00678-3.92-0.00431-7.85-0.00286-11.8-0.0021-6.8 5.25e-4 -13.6-0.00262-20.4-0.00824-9.83-0.00812-19.7-0.0107-29.5-0.012-16-0.00219-31.9-0.00885-47.9-0.0183-15.5-0.00918-31-0.0163-46.5-0.0205-0.955-2.63e-4 -1.91-5.25e-4 -2.89-7.96e-4 -4.79-0.00131-9.58-0.00257-14.4-0.00381-39.8-0.0104-79.5-0.028-119-0.0503v-6c-0.654 0.174-1.31 0.348-1.98 0.527-3.83 0.6-7.49 0.334-11.3 0.0352-1.11-0.0783-1.11-0.0783-2.24-0.158-1.81-0.129-3.63-0.266-5.44-0.404v-1c15.7-1.06 31.4-1.15 47.1-1.15z" fill="#D9DCDC"/>
<path transform="translate(918,598)" d="m0 0h2c0.33 15.2 0.66 30.4 1 46 45.5 0.33 91.1 0.66 138 1v-17c0.99 0.99 0.99 0.99 2 2 0.99-0.495 0.99-0.495 2-1 2.12 0.438 2.12 0.438 4 1v3h-4v2h4c1.19 5.38 2.29 10.5 2 16l2 1h-2v4h2v2l2 1c-2.97 0.99-2.97 0.99-6 2-0.66 3.3-1.32 6.6-2 10-0.33-0.99-0.66-1.98-1-3-3.01-1.23-3.01-1.23-6-2-0.33-2.64-0.66-5.28-1-8h-3v-2c-1.65 0.66-3.3 1.32-5 2v-2h-6v-1c-0.855 0.00138-0.855 0.00138-1.73 0.00279-13.9 0.0221-27.7 0.0386-41.6 0.049-6.7 0.00516-13.4 0.0122-20.1 0.0236-6.46 0.0108-12.9 0.0168-19.4 0.0194-2.47 0.00185-4.94 0.00547-7.41 0.0109-3.45 0.00722-6.9 0.00826-10.4 0.0078-1.03 0.0036-2.06 0.00719-3.12 0.0109-0.937-0.00137-1.87-0.00275-2.84-0.00417-0.817 9.22e-4 -1.63 0.00184-2.47 0.00279-1.98-0.123-1.98-0.123-3.98-1.12v2h-5v2c-1.32 0.66-2.64 1.32-4 2-0.33-1.32-0.66-2.64-1-4h-7c0.66-0.66 1.32-1.32 2-2 0.46-2.2 0.46-2.2 0.625-4.62 0.112-1.23 0.112-1.23 0.227-2.48 0.049-0.626 0.098-1.25 0.148-1.9h3c-0.0303-0.791-0.0606-1.58-0.0918-2.4-0.138-3.64-0.273-7.28-0.408-10.9-0.0477-1.24-0.0954-2.49-0.145-3.77-0.241-6.55-0.404-13.1-0.318-19.6-0.0358-2.19-0.256-4.25-0.6-6.42-0.144-0.949-0.289-1.9-0.438-2.88l1-1z" fill="#D9DCDC"/>
<path transform="translate(1063,434)" d="m0 0h4v8h-2v3h2c-0.00222 0.791-0.00444 1.58-0.00673 2.4-0.0201 7.46-0.0353 14.9-0.0451 22.4-0.00521 3.83-0.0123 7.67-0.0236 11.5-0.0109 3.7-0.0168 7.4-0.0194 11.1-0.00184 1.41-0.00545 2.82-0.0109 4.23-0.00728 1.98-0.00768 3.96-0.0078 5.94-0.00222 1.13-0.00444 2.25-0.00673 3.41 0.111 2.8 0.533 5.3 1.12 8.03-0.186 10.7-1.76 21.4-3 32h-6v2c-2.47 0.99-2.47 0.99-5 2v-2c-7.59-0.33-15.2-0.66-23-1-0.33-0.66-0.66-1.32-1-2-0.832-0.00497-0.832-0.00497-1.68-0.01-13.5-0.0812-27-0.173-40.5-0.277-6.52-0.05-13-0.0964-19.6-0.134-6.29-0.0368-12.6-0.0831-18.9-0.136-2.4-0.0186-4.81-0.0337-7.21-0.0453-3.36-0.0168-6.71-0.0458-10.1-0.0778-1-0.00216-2.01-0.00432-3.04-0.00655-0.911-0.0112-1.82-0.0223-2.76-0.0338-0.795-0.00553-1.59-0.0111-2.41-0.0168-1.93-0.262-1.93-0.262-3.93-2.26 0.33-1.32 0.66-2.64 1-4 67.8 0.495 67.8 0.495 137 1-0.33-32.7-0.66-65.3-1-99h4c0.66-1.98 1.32-3.96 2-6z" fill="#D9DCDC"/>
<path transform="translate(1029,173)" d="m0 0h502c0.33 0.99 0.66 1.98 1 3 1.49-0.495 1.49-0.495 3-1 0.33 0.66 0.66 1.32 1 2-56.6 0.023-113 0.0406-170 0.0511-6.72 0.00125-13.4 0.00254-20.2 0.00387-1 1.96e-4 -1 1.96e-4 -2.03 3.96e-4 -22.2 0.00437-44.4 0.0123-66.6 0.0218-22.2 0.00942-44.3 0.0149-66.5 0.0169-12.4 0.00124-24.8 0.00419-37.2 0.0116-101 0.0588-101 0.0588-146-1.11 0.33-0.99 0.66-1.98 1-3z" fill="#D7DBDC"/>
<path transform="translate(118,173)" d="m0 0h406c0.33 0.99 0.66 1.98 1 3-10.7 0.672-21.4 1.12-32.1 0.963-1.96-0.0217-3.92 0.00294-5.88 0.0371-0.33 0.33-0.66 0.66-1 1-2.37 0.0976-4.7 0.13-7.07 0.12-0.748 8.54e-4 -1.5 0.00171-2.27 0.00259-2.53 0.00166-5.05-0.00387-7.58-0.00932-1.8-2.82e-4 -3.61-1.24e-4 -5.41 4.43e-4 -4.91 2.88e-4 -9.82-0.00561-14.7-0.0126-5.13-0.00623-10.3-0.00684-15.4-0.00803-9.71-0.00311-19.4-0.0113-29.1-0.0213-11.1-0.0112-22.1-0.0167-33.2-0.0217-22.8-0.0105-45.5-0.0281-68.3-0.0503v-1c-61.4-0.33-123-0.66-186-1 0.33-0.99 0.66-1.98 1-3z" fill="#D7DBDC"/>
<path transform="translate(917,476)" d="m0 0h2c0.566 11.6 1 23.3 1.25 34.9 0.0207 0.947 0.0415 1.89 0.0629 2.87 0.104 4.8 0.201 9.61 0.29 14.4 0.0371 1.79 0.0742 3.58 0.112 5.37 0.0135 0.837 0.0271 1.67 0.041 2.54-0.274 3.76-0.274 3.76 1.24 6.9 1.4 0.108 2.81 0.147 4.22 0.158 0.91 0.00979 1.82 0.0196 2.76 0.0297 1.01 0.00576 2.01 0.0115 3.05 0.0174 1.05 0.0099 2.11 0.0198 3.19 0.03 3.5 0.0317 7 0.0564 10.5 0.0811 2.42 0.0206 4.84 0.0416 7.26 0.063 6.38 0.0553 12.8 0.105 19.2 0.153 6.51 0.0501 13 0.106 19.5 0.161 12.8 0.108 25.6 0.209 38.3 0.307 0.33 0.99 0.66 1.98 1 3h19c-0.33 0.66-0.66 1.32-1 2-2.97-0.495-2.97-0.495-6-1-0.33 1.32-0.66 2.64-1 4-1.27-0.0058-2.53-0.0116-3.83-0.0176-13.1-0.0393-26.2 0.0666-39.3 0.236-0.849 0.011-1.7 0.022-2.57 0.0333-6.18 0.0805-12.4 0.164-18.5 0.248-11.1 0.15-22.2 0.299-33.3 0.425-4.38 0.0497-8.76 0.11-13.1 0.177-1.79 0.019-3.59 0.0374-5.38 0.0547-0.752 0.0149-1.5 0.0297-2.28 0.045-4.25 0.024-7.66-0.64-11.6-2.2 0.99-0.495 0.99-0.495 2-1v-3h2v-4c-0.66-0.33-1.32-0.66-2-1h2c0.495-8.91 0.495-8.91 1-18h2c-0.495-1.49-0.495-1.49-1-3-0.0696-3.78 0.00282-7.55 0.0625-11.3 0.0569-3.47 0.0569-3.47-0.56-6.02-0.556-2.93-0.615-5.62-0.6-8.6 0.00483-1.67 0.00483-1.67 0.00977-3.37 0.00838-1.15 0.0168-2.3 0.0254-3.49 0.00451-1.17 0.00902-2.34 0.0137-3.54 0.0118-2.88 0.0282-5.76 0.0488-8.64z" fill="#D9DCDC"/>
<path transform="translate(546,443)" d="m0 0h1c1.21 9.46 1.12 18.9 1.08 28.4-0.0129 2.91-0.0193 5.82-0.0241 8.72-0.0114 6.16-0.0306 12.3-0.051 18.5-0.0236 7.17-0.0439 14.3-0.0559 21.5-0.0065 2.87-0.019 5.74-0.0317 8.61-0.00363 1.74-0.00698 3.49-0.01 5.23-0.00517 0.802-0.0103 1.6-0.0157 2.43-1.81e-4 1.86 0.0509 3.73 0.113 5.59 1.85 1.85 4.92 1.15 7.4 1.17 0.668 0.00669 1.34 0.0134 2.03 0.0203 1.46 0.0141 2.91 0.026 4.37 0.0359 2.3 0.0164 4.61 0.0396 6.91 0.0649 6.55 0.0709 13.1 0.131 19.6 0.182 4 0.0318 8 0.073 12 0.12 1.53 0.016 3.05 0.0283 4.58 0.0369 2.14 0.0121 4.27 0.0363 6.41 0.0631 1.22 0.0103 2.43 0.0206 3.69 0.0312 2.97 0.272 2.97 0.272 5.97 2.27h-23c14.2 0.33 28.4 0.66 43 1v4c-11.5 0.765-23.1 1.21-34.6 1.39-1.62 0.0258-3.24 0.0515-4.86 0.0773-3.36 0.0523-6.71 0.101-10.1 0.148-4.29 0.061-8.58 0.135-12.9 0.212-3.33 0.0576-6.66 0.106-9.99 0.152-1.58 0.0233-3.17 0.05-4.75 0.0803-2.2 0.0413-4.41 0.0694-6.61 0.0943-1.25 0.0192-2.5 0.0384-3.79 0.0582-3.47-0.213-6.19-0.954-9.42-2.21v-3c-0.66-0.33-1.32-0.66-2-1 0.0657-0.727 0.131-1.45 0.199-2.2 0.634-7.26 1.1-14.5 1.36-21.8 0.0439-1.2 0.0878-2.4 0.133-3.64 0.316-9.86 0.325-19.7 0.297-29.6-0.00163-0.673-0.00327-1.35-0.00495-2.04-0.0169-6.9-0.0421-13.8-0.0971-20.7-0.0238-3.25-0.0356-6.51-0.0503-9.76-0.0135-1.21-0.027-2.41-0.0409-3.66-0.00333-1.11-0.00667-2.21-0.0101-3.35-0.00746-0.971-0.0149-1.94-0.0226-2.94 0.234-2.32 0.234-2.32 2.23-4.32z" fill="#D9DCDC"/>
<path transform="translate(1060,617)" d="m0 0h164v6h-164v-6z" fill="#000002"/>
<path transform="translate(1062,315)" d="m0 0h3c1.23 4.32 1 8.54 1 13h-4c0.33 0.66 0.66 1.32 1 2 0.99-0.33 1.98-0.66 3-1 0.366 1.41 0.717 2.83 1.06 4.25 0.197 0.789 0.394 1.58 0.598 2.39 0.34 2.36 0.34 2.36-0.131 4.07-0.72 3.11-0.659 6.06-0.662 9.25-9.57e-4 0.668-0.00191 1.34-0.0029 2.02-6.79e-4 1.41 0.00115 2.82 0.00534 4.23 0.00534 2.14 5.37e-5 4.29-0.00635 6.43 6.61e-4 1.38 0.00194 2.75 0.00391 4.12 0.00113 1.24 0.00226 2.48 0.00342 3.76 0.121 3.25 0.543 6.27 1.13 9.46 0.0621 1.62 0.0871 3.25 0.0625 4.88-0.00902 0.781-0.018 1.56-0.0273 2.37-0.0116 0.58-0.0232 1.16-0.0352 1.76h-1c-0.168 2.75-0.335 5.5-0.5 8.25-0.0477 0.777-0.0954 1.55-0.145 2.36-0.0451 0.754-0.0902 1.51-0.137 2.29-0.0419 0.691-0.0838 1.38-0.127 2.09-0.0913 2-0.0918 4.01-0.0918 6.01h3c-0.0871 1.46-0.195 2.92-0.312 4.38-0.058 0.812-0.116 1.62-0.176 2.46-0.512 2.16-0.512 2.16-3.51 4.16-0.598-0.33-1.2-0.66-1.81-1-2.24-1.21-2.24-1.21-5.19-1h-4v-2c-0.66-0.33-1.32-0.66-2-1v-3h6c-0.33-29-0.66-58.1-1-88h4c0.33-2.97 0.66-5.94 1-9z" fill="#D9DCDC"/>
<path transform="translate(688,317)" d="m0 0c2.31 0.66 4.62 1.32 7 2v6h-2c0.33 1.65 0.66 3.3 1 5h-4v-2c-0.66 0.33-1.32 0.66-2 1-1.06 5.58-1.06 5.58 0 11 0.228 2.73 0.417 5.45 0.562 8.19 0.0432 0.75 0.0864 1.5 0.131 2.27 0.106 1.85 0.207 3.69 0.307 5.54h2c-0.0232 0.69-0.0464 1.38-0.0703 2.09-0.018 0.94-0.0361 1.88-0.0547 2.85-0.0232 0.917-0.0464 1.83-0.0703 2.78 0.16 2.7 0.527 4.72 1.2 7.29 1.48 6.26 1.17 12.5 1.06 18.9-0.0343 2.43-0.0645 4.85-0.0898 7.28-0.018 1.06-0.0359 2.13-0.0544 3.22-0.0974 2.55-0.0974 2.55 1.08 4.56-0.33 0.99-0.66 1.98-1 3 0.99 1.49 0.99 1.49 2 3-0.875 3.19-0.875 3.19-2 6-6.75 0.125-6.75 0.125-9-1v2c-2.51-0.418-4.62-0.794-6.87-2.02-2.49-1.14-4.24-1.24-6.98-1.26-0.973-0.0112-1.95-0.0223-2.95-0.0338-1.06-0.00216-2.12-0.00432-3.22-0.00655-1.12-0.01-2.24-0.0201-3.4-0.0304-3.71-0.0309-7.42-0.0479-11.1-0.0648-2.57-0.0187-5.15-0.0383-7.72-0.0587-6.08-0.0461-12.2-0.0835-18.2-0.117-6.92-0.0382-13.8-0.0876-20.8-0.138-14.2-0.103-28.5-0.193-42.7-0.273v-1l124-1c-0.33-29-0.66-58.1-1-88h2v-2c3-1 3-1 5.19-0.0625 0.598 0.351 1.2 0.701 1.81 1.06v-4c-1.32 0.33-2.64 0.66-4 1v-3z" fill="#D9DCDC"/>
<path transform="translate(920,644)" d="m0 0c68.8 0.495 68.8 0.495 139 1v6c-17.8 0.0467-35.7 0.082-53.5 0.104-8.28 0.0103-16.6 0.0244-24.8 0.0473-7.21 0.0199-14.4 0.0328-21.6 0.0373-3.82 0.00261-7.64 0.00877-11.5 0.0233-3.59 0.0135-7.19 0.0178-10.8 0.0148-1.95 8.16e-4 -3.91 0.0116-5.86 0.0226-1.73-0.00412-1.73-0.00412-3.5-0.00833-1.01 0.00184-2.02 0.00369-3.06 0.00559-2.39-0.246-2.39-0.246-4.39-2.25v-5z" fill="#000002"/>
<path transform="translate(687,593)" d="m0 0c0.921 13.3 1.48 26.7 2 40h2v7h-3c0.33 20.8 0.66 41.6 1 63h2v28c-1.32 0.33-2.64 0.66-4 1 0.33 0.99 0.66 1.98 1 3 0.0802 1.41 0.108 2.82 0.0977 4.23-0.00322 0.802-0.00645 1.6-0.00977 2.43-0.00838 0.833-0.0168 1.67-0.0254 2.53-0.00451 0.845-0.00902 1.69-0.0137 2.56-0.0118 2.08-0.0297 4.17-0.0488 6.25h-3c-1.1-3.31-1.14-5.79-1.16-9.28-0.00979-1.32-0.0196-2.63-0.0297-3.99-0.0059-1.46-0.0117-2.93-0.0174-4.39-0.00958-1.54-0.0196-3.07-0.03-4.61-0.0271-4.18-0.0481-8.35-0.068-12.5-0.0219-4.36-0.0492-8.73-0.0761-13.1-0.0499-8.27-0.0949-16.5-0.138-24.8-0.0494-9.41-0.104-18.8-0.16-28.2-0.114-19.4-0.221-38.7-0.323-58.1 2-1 2-1 4-1z" fill="#D9DCDC"/>
<path transform="translate(683,440)" d="m0 0h3c0.193 1.14 0.387 2.29 0.586 3.46 0.263 1.49 0.526 2.98 0.789 4.47 0.126 0.755 0.253 1.51 0.383 2.29 0.348 1.94 0.789 3.86 1.24 5.78l2 1v15h-2c-0.33 2.64-0.66 5.28-1 8h3c0.768 7.72 1.3 15.4 1.62 23.2 0.0458 1.09 0.0915 2.18 0.139 3.3 0.269 7.46 0.0454 14.7-0.572 22.2-0.259 4.53 0.109 8.87 0.809 13.3h-2v3c-2.8-0.29-3.79-0.75-5.61-2.95-1.95-4.28-1.83-8.06-1.82-12.7-0.0102-0.966-0.0204-1.93-0.0309-2.93-0.0301-3.19-0.0394-6.37-0.0485-9.56-0.0168-2.21-0.035-4.42-0.0544-6.64-0.0475-5.82-0.0773-11.6-0.103-17.5-0.0298-5.94-0.0763-11.9-0.121-17.8-0.0861-11.6-0.153-23.3-0.209-34.9z" fill="#D9DCDC"/>
<path transform="translate(920,538)" d="m0 0c45.5 0.33 91.1 0.66 138 1v4c-16.6 0.88-33.2 1.16-49.9 1.17-2.5 0.00322-4.99 0.00659-7.49 0.0101-5.17 0.00593-10.3 0.00785-15.5 0.00725-5.31-8.22e-5 -10.6 0.00666-15.9 0.0205-6.46 0.0166-12.9 0.0236-19.4 0.0229-2.45 0.00118-4.9 0.00561-7.36 0.0133-3.4 0.00973-6.8 0.00695-10.2 8.95e-4 -1.01 0.00562-2.03 0.0112-3.07 0.017-0.92-0.00419-1.84-0.00839-2.79-0.0127-0.802 5.45e-4 -1.6 0.00109-2.43 0.00165-1.95-0.249-1.95-0.249-3.95-2.25v-4z" fill="#000002"/>
<path transform="translate(547,537)" d="m0 0 2 1c1.79 0.105 3.58 0.147 5.37 0.158 1.71 0.0147 1.71 0.0147 3.45 0.0297 1.88 0.00863 1.88 0.00863 3.8 0.0174 1.32 0.0099 2.63 0.0198 3.99 0.03 3.62 0.0271 7.24 0.0481 10.9 0.068 3.78 0.0218 7.56 0.0492 11.3 0.0761 7.16 0.05 14.3 0.0949 21.5 0.138 8.15 0.0494 16.3 0.104 24.4 0.16 16.8 0.114 33.5 0.221 50.3 0.323v4c-33.3 0.678-66.5 1.12-99.8 1.18-2.46 0.00584-4.93 0.0155-7.39 0.0263-3.89 0.0165-7.77 0.0229-11.7 0.0212-1.44 8.42e-4 -2.88 0.00502-4.32 0.0127-1.97 0.00972-3.93 0.00576-5.9 0.00103-1.11 0.00143-2.21 0.00285-3.35 0.00432-2.59-0.247-2.59-0.247-4.59-2.25-0.125-2.62-0.125-2.62 0-5z" fill="#000002"/>
<path transform="translate(704,88)" d="m0 0c19.2-0.0234 38.3-0.041 57.5-0.0518 8.9-0.00515 17.8-0.0122 26.7-0.0236 7.76-0.00998 15.5-0.0164 23.3-0.0186 4.1-0.0013 8.21-0.00435 12.3-0.0116 3.87-0.00681 7.74-0.00888 11.6-0.00738 1.42-2.74e-4 2.83-0.00225 4.25-0.0061 6.89-0.0178 13.6 0.034 20.4 1.12v1c-9.41 1.57-18.4 2.28-27.9 2.23-1.97 4.38e-4 -1.97 4.38e-4 -3.98 8.85e-4 -3.56 5.67e-4 -7.11-0.0111-10.7-0.0251-3.74-0.0126-7.47-0.0137-11.2-0.0161-7.06-0.00618-14.1-0.0225-21.2-0.0427-8.03-0.0224-16.1-0.0334-24.1-0.0434-15.8-0.02-31.7-0.0529-47.5-0.0951-1.81-0.00415-3.63-0.00559-5.44-0.00559h-2c-0.66-1.32-1.32-2.64-2-4z" fill="#DADDDC"/>
<path transform="translate(920,407)" d="m0 0c45.5 0.33 91.1 0.66 138 1v4c-17.7 0.0467-35.4 0.082-53.1 0.104-8.22 0.0103-16.4 0.0244-24.7 0.0473-7.16 0.0199-14.3 0.0328-21.5 0.0373-3.79 0.00261-7.59 0.00877-11.4 0.0233-3.57 0.0135-7.13 0.0178-10.7 0.0148-1.94 8.16e-4 -3.88 0.0116-5.82 0.0226-1.72-0.00412-1.72-0.00412-3.48-0.00833-1 0.00184-2 0.00369-3.03 0.00559-2.37-0.246-2.37-0.246-4.37-2.25v-3z" fill="#000002"/>
<path transform="translate(547,406)" d="m0 0 2 1c1.79 0.105 3.58 0.147 5.37 0.158 1.71 0.0147 1.71 0.0147 3.45 0.0297 1.88 0.00863 1.88 0.00863 3.8 0.0174 1.32 0.0099 2.63 0.0198 3.99 0.03 3.62 0.0271 7.24 0.0481 10.9 0.068 3.78 0.0218 7.56 0.0492 11.3 0.0761 7.16 0.05 14.3 0.0949 21.5 0.138 8.15 0.0494 16.3 0.104 24.4 0.16 16.8 0.114 33.5 0.221 50.3 0.323v4c-16.1 0.0234-32.2 0.041-48.3 0.0518-7.48 0.00514-15 0.0122-22.4 0.0236-6.52 0.01-13 0.0164-19.6 0.0186-3.45 0.0013-6.9 0.00432-10.4 0.0116-3.86 0.00813-7.73 0.00826-11.6 0.0078-1.13 0.0036-2.26 0.00719-3.42 0.0109-6.82-0.00879-13.5-0.381-20.3-1.12-0.33-1.65-0.66-3.3-1-5z" fill="#000002"/>
<path transform="translate(917,357)" d="m0 0h2c0.574 9.26 1.01 18.5 1.25 27.8 0.0207 0.765 0.0415 1.53 0.0629 2.32 0.104 3.89 0.201 7.78 0.29 11.7 0.0371 1.45 0.0742 2.9 0.112 4.35 0.0303 1.3 0.0606 2.6 0.0918 3.93-0.142 2.82-0.142 2.82 1.19 3.93 1.63 0.154 3.26 0.239 4.89 0.297 1.09 0.039 2.18 0.0781 3.3 0.118 1.23 0.0371 2.46 0.0742 3.72 0.112 1.31 0.0413 2.62 0.0827 3.97 0.125 20.4 0.605 40.8 0.698 61.1 0.88 5.65 0.0511 11.3 0.106 17 0.161 11 0.106 22 0.208 33 0.307v1h-90l-1 2v-2h-4v2c-5.75 0.125-5.75 0.125-8-1-2.04-0.229-4.08-0.41-6.12-0.562-1.1-0.0838-2.19-0.168-3.32-0.254-1.26-0.0909-1.26-0.0909-2.55-0.184v3c-3.75 1.12-3.75 1.12-6 0v2c2.48-0.495 2.48-0.495 5-1 0.33 0.99 0.66 1.98 1 3h-3c-0.99 0.99-0.99 0.99-2 2-0.66-0.66-1.32-1.32-2-2-0.99 0.495-0.99 0.495-2 1-2.12-0.938-2.12-0.938-4-2 0.99-0.495 0.99-0.495 2-1-3.33-2.19-6.04-3.43-10-4 1.49-0.495 1.49-0.495 3-1-0.776-3.07-0.776-3.07-3-5h3c-0.0116-0.592-0.0232-1.18-0.0352-1.79-0.0481-4.21-0.0249-8.1 1.04-12.2h2c-0.33-1.98-0.66-3.96-1-6h-1v-32z" fill="#D9DCDC"/>
<path transform="translate(937 268)" d="m0 0c1.03-0.00137 2.06-0.00275 3.12-0.00417 1.7 0.00539 1.7 0.00539 3.42 0.0109 1.79-2.19e-4 1.79-2.19e-4 3.61-4.43e-4 3.26 5.78e-4 6.53 0.0056 9.79 0.0126 3.41 0.00625 6.82 0.00684 10.2 0.00803 6.46 0.00311 12.9 0.0113 19.4 0.0213 7.35 0.0112 14.7 0.0167 22.1 0.0217 15.1 0.0105 30.3 0.028 45.4 0.0503 0.495 1.49 0.495 1.49 1 3-16.1 0.0467-32.3 0.082-48.4 0.104-7.49 0.0103-15 0.0244-22.5 0.0473-6.53 0.0199-13.1 0.0328-19.6 0.0373-3.46 0.00261-6.91 0.00877-10.4 0.0233-3.86 0.0161-7.71 0.0165-11.6 0.0156-1.15 0.00719-2.3 0.0144-3.49 0.0218-1.05-0.00275-2.09-0.0055-3.17-0.00833-0.913 0.00184-1.83 0.00369-2.77 0.00559-2.18-0.246-2.18-0.246-4.18-2.25 2.97-0.99 4.89-1.12 7.99-1.12z" fill="#D7DBDC"/>
<path transform="translate(568 268)" d="m0 0c0.997-0.00137 1.99-0.00275 3.02-0.00417 1.09 0.0036 2.19 0.00719 3.31 0.0109 1.15-1.46e-4 2.3-2.92e-4 3.49-4.43e-4 3.81 6.98e-4 7.63 0.00849 11.4 0.0163 2.64 0.00186 5.28 0.00329 7.92 0.00429 6.25 0.00311 12.5 0.0113 18.7 0.0213 7.11 0.0112 14.2 0.0167 21.3 0.0217 14.6 0.0105 29.3 0.028 43.9 0.0503 0.495 1.49 0.495 1.49 1 3-15.6 0.0467-31.2 0.082-46.8 0.104-7.25 0.0103-14.5 0.0244-21.7 0.0473-6.32 0.0199-12.6 0.0328-18.9 0.0373-3.35 0.00261-6.69 0.00877-10 0.0233-3.73 0.0144-7.46 0.0165-11.2 0.0156-1.11 0.00719-2.23 0.0144-3.38 0.0218-1.52-0.00412-1.52-0.00412-3.07-0.00833-0.883 0.00184-1.77 0.00369-2.68 0.00559-2.12-0.246-2.12-0.246-4.12-2.25 2.93-0.977 4.79-1.12 7.84-1.12z" fill="#D7DBDC"/>
<path transform="translate(927,40)" d="m0 0v36h-1c-0.049-0.748-0.098-1.5-0.148-2.27-0.112-1.48-0.112-1.48-0.227-2.98-0.0696-0.975-0.139-1.95-0.211-2.95-0.403-2.72-1.19-4.38-2.41-6.8 0.34-3.81 1.07-7.29 2-11-0.99-2.64-1.98-5.28-3-8-85.5-0.33-171-0.66-259-1v-1c32.6-0.15 65.2-0.295 97.9-0.433 3.85-0.0163 7.7-0.0326 11.6-0.0489 1.15-0.00488 1.15-0.00488 2.32-0.00986 12.4-0.0528 24.8-0.109 37.2-0.167 12.7-0.0592 25.5-0.114 38.2-0.166 7.86-0.032 15.7-0.067 23.6-0.106 6.03-0.0295 12.1-0.0536 18.1-0.0757 2.47-0.0099 4.94-0.0216 7.42-0.0351 3.37-0.0182 6.75-0.0301 10.1-0.0405 0.98-0.0068 1.96-0.0136 2.97-0.0206 1.36-0.00224 1.36-0.00224 2.76-0.00452 0.778-0.00342 1.56-0.00683 2.36-0.0104 3.19 0.149 6.36 0.666 9.52 1.12z" fill="#D9DCDC"/>
<path transform="translate(941,650)" d="m0 0h113c0.495 1.49 0.495 1.49 1 3h-115c0.33-0.99 0.66-1.98 1-3z" fill="#D7DBDC"/>
<path transform="translate(1331,286)" d="m0 0h1v295h-1c-0.00423-1.32-0.00846-2.64-0.0128-3.99-0.101-31.2-0.206-62.5-0.318-93.7-0.0138-3.84-0.0275-7.69-0.0412-11.5-0.00273-0.765-0.00546-1.53-0.00827-2.32-0.0441-12.4-0.0847-24.8-0.124-37.2-0.0404-12.7-0.0846-25.4-0.132-38.2-0.0293-7.85-0.0557-15.7-0.0783-23.6-0.0176-6.01-0.0405-12-0.0653-18-0.00939-2.47-0.0171-4.95-0.0229-7.42-0.00824-3.36-0.0225-6.72-0.0384-10.1-9.78e-4 -0.99-0.00196-1.98-0.00296-3-0.00547-0.896-0.0109-1.79-0.0166-2.71-0.00266-0.777-0.00532-1.55-0.00805-2.35-0.0151-1.98-0.0151-1.98-1.13-3.89 0.33-0.66 0.66-1.32 1-2 0.157-2.62 0.258-5.23 0.316-7.85 0.0312-1.16 0.0312-1.16 0.063-2.35 0.0655-2.48 0.124-4.95 0.183-7.43 0.0432-1.68 0.0868-3.35 0.131-5.03 0.107-4.11 0.208-8.23 0.307-12.3z" fill="#DADDDC"/>
<path transform="translate(1089,690)" d="m0 0h15v5h4v4h-5c2.79 1.11 2.79 1.11 5 1v4c-2.47-0.99-2.47-0.99-5-2v2c-1.44 0.0271-2.87 0.0465-4.31 0.0625-1.2 0.0174-1.2 0.0174-2.43 0.0352-2.26-0.0977-2.26-0.0977-5.26-1.1v-2h-4c-0.33 0.66-0.66 1.32-1 2-0.33-1.32-0.66-2.64-1-4 1.21-0.217 1.21-0.217 2.44-0.438 2.48-0.304 2.48-0.304 3.56-1.56-1.32-0.33-2.64-0.66-4-1-0.33 0.66-0.66 1.32-1 2v-3h-17v-4c6.43-0.134 12.8 0.185 19 2 0.33-0.99 0.66-1.98 1-3z" fill="#D7DBDC"/>
<path transform="translate(546,328)" d="m0 0h1c0.811 9.35 1.13 18.6 1.08 28-0.013 2.22-0.0193 4.43-0.0241 6.65-0.0113 4.69-0.0306 9.37-0.051 14.1-0.0237 5.47-0.044 10.9-0.0559 16.4-0.00647 2.18-0.019 4.36-0.0317 6.54-0.0033 1.32-0.00661 2.63-0.01 3.99-0.00524 1.16-0.0105 2.32-0.0159 3.51 0.143 3.58 0.556 5.29 3.11 7.85-2.48 0.495-2.48 0.495-5 1v-2h-2c-1.07-7.69-1.06-15.2-0.914-22.9 0.0212-1.31 0.0425-2.63 0.0644-3.98 0.0452-2.76 0.0944-5.53 0.147-8.29 0.0667-3.54 0.124-7.09 0.178-10.6 0.053-3.39 0.114-6.78 0.174-10.2 0.0298-1.91 0.0298-1.91 0.0602-3.86 0.0232-1.17 0.0463-2.34 0.0702-3.55 0.0186-1.03 0.0371-2.07 0.0562-3.13 0.165-2.46 0.165-2.46 1.16-4.46 0.0456-2.17 0.0383-4.33 0-6.5-0.111-6.28-0.111-6.28 1-8.5z" fill="#D9DCDC"/>
<path transform="translate(67,188)" d="m0 0h23c0.33 0.99 0.66 1.98 1 3h19v1c-7.05 1.2-13.8 2.28-21 2v2c-5.94 0.495-5.94 0.495-12 1v3c-3.23-0.557-5.02-1.33-7-4v-4h-4c0.33-1.32 0.66-2.64 1-4z" fill="#DADDDC"/>
<path transform="translate(890 187)" d="m0 0c0.774-9.57e-4 1.55-0.00191 2.35-0.0029 1.65-6.81e-4 3.3 0.00117 4.95 0.00534 2.46 0.00524 4.91 1.11e-4 7.37-0.00635 10.9-0.00412 21.7 0.421 32.6 1.14v1h-13v2c-1.6 0.0376-1.6 0.0376-3.23 0.0759-3.96 0.0944-7.92 0.195-11.9 0.296-1.71 0.0432-3.42 0.0849-5.14 0.125-2.47 0.058-4.93 0.122-7.39 0.186-0.762 0.0167-1.52 0.0334-2.31 0.0506-3.79 0.105-7.37 0.37-11.1 1.27-0.433-0.959-0.433-0.959-0.875-1.94-0.953-2.21-0.953-2.21-3.12-3.06 3.64-1.21 6.97-1.14 10.8-1.13z" fill="#DADDDC"/>
<path transform="translate(1214 558)" d="m0 0c0.973 0.00444 1.95 0.00888 2.95 0.0135 1.65 2.27e-4 1.65 2.27e-4 3.34 4.58e-4 1.19 0.0103 2.39 0.0206 3.61 0.0313 1.22 0.00283 2.44 0.00566 3.69 0.00858 3.9 0.0112 7.81 0.0363 11.7 0.0617 2.64 0.01 5.28 0.0192 7.92 0.0273 6.48 0.0221 13 0.0556 19.5 0.0977v3c-3.78 1.16-6.65 0.763-10.5 0.156-3.27-0.203-6.27 0.373-9.51 0.844-2.7 0.0917-5.36 0.143-8.06 0.125-0.735-0.00266-1.47-0.00532-2.23-0.00806-8.96-0.0763-17.9-0.541-26.7-2.12 2-2 2-2 4.33-2.24z" fill="#DADDDC"/>
<path transform="translate(728,173)" d="m0 0h48c0.495 1.49 0.495 1.49 1 3h-50c0.33-0.99 0.66-1.98 1-3z" fill="#D7DBDC"/>
<path transform="translate(592 187)" d="m0 0c0.925-0.00193 1.85-0.00387 2.8-0.00586 0.98 0.00451 1.96 0.00902 2.97 0.0137 1.01 0.00193 2.02 0.00387 3.06 0.00586 9.46 0.0534 18.9 0.502 28.3 1.12v1c-9.83 1.62-19.4 2.38-29.4 2.62-1.33 0.0383-2.67 0.0774-4 0.117-3.21 0.093-6.42 0.179-9.62 0.258-0.33-0.99-0.66-1.98-1-3-0.99-0.33-1.98-0.66-3-1 3.34-0.748 6.43-1.13 9.85-1.13z" fill="#DADDDC"/>
<path transform="translate(303,333)" d="m0 0h6v22h-6v-22z" fill="#DADDDC"/>
<path transform="translate(615 86.8)" d="m0 0c1.04 1.51e-4 2.08 3.02e-4 3.15 4.58e-4 1.68 0.0155 1.68 0.0155 3.38 0.0313 1.15 0.00283 2.3 0.00566 3.48 0.00858 3.67 0.0112 7.34 0.0363 11 0.0617 2.49 0.01 4.97 0.0192 7.46 0.0273 6.1 0.0221 12.2 0.0555 18.3 0.0977v1c-15.2 0.33-30.4 0.66-46 1 0.99 0.66 1.98 1.32 3 2h-51v-1c1.13-0.0198 2.26-0.0396 3.42-0.0601 4.2-0.0761 8.39-0.165 12.6-0.257 1.82-0.0383 3.63-0.0731 5.45-0.104 2.61-0.0457 5.22-0.104 7.83-0.164 0.811-0.0116 1.62-0.0231 2.46-0.035 4.23-0.0355 4.23-0.0355 8.17-1.38 2.58-1.23 4.45-1.24 7.31-1.22z" fill="#616364"/>
<path transform="translate(67,183)" d="m0 0c3.62-0.0289 7.25-0.0468 10.9-0.0625 1.55-0.0126 1.55-0.0126 3.13-0.0254 0.986-0.00322 1.97-0.00645 2.99-0.00977 1.37-0.00786 1.37-0.00786 2.76-0.0159 2.25 0.114 2.25 0.114 4.25 1.11v2c1.01-0.261 1.01-0.261 2.04-0.527 3.54-0.566 6.7-0.336 10.3-0.0352 1.25 0.102 2.51 0.204 3.8 0.309 0.953 0.0838 1.91 0.168 2.89 0.254-2.87 1.63-4.84 2.24-8.13 2.14-0.801-0.0202-1.6-0.0403-2.43-0.0611-0.854-0.0322-1.71-0.0644-2.59-0.0976-0.882-0.025-1.76-0.0501-2.67-0.0758-2.81-0.082-5.62-0.179-8.44-0.276-1.91-0.0583-3.82-0.116-5.73-0.172-4.67-0.14-9.35-0.293-14-0.453 0.33-1.32 0.66-2.64 1-4z" fill="#DADDDC"/>
<path transform="translate(296,91)" d="m0 0c3.16 1.37 3.99 1.99 6 5 0.484 3.07 0.484 3.07 0.75 6.56 0.098 1.16 0.196 2.31 0.297 3.5-0.0469 2.93-0.0469 2.93-2.05 4.93h-5v-20z" fill="#D9DCDC"/>
<path transform="translate(1328,88)" d="m0 0c1 1 1 1 1.11 4.51-1.59e-4 1.56-0.00585 3.12-0.0159 4.68-0.00141 0.82-0.00283 1.64-0.00429 2.48-0.00562 2.63-0.0182 5.26-0.0309 7.89-0.00501 1.78-0.00958 3.56-0.0137 5.33-0.011 4.37-0.0283 8.74-0.0488 13.1-0.99-0.33-1.98-0.66-3-1h2v-13h-2v-8h2c-0.33-2.64-0.66-5.28-1-8h-9c-0.33-0.66-0.66-1.32-1-2 6.75-0.125 6.75-0.125 9 1v-2h-3v-3c-0.784 0.206-1.57 0.412-2.38 0.625-0.866 0.124-1.73 0.248-2.62 0.375-0.66-0.66-1.32-1.32-2-2 4.05-0.982 7.84-1.16 12-1z" fill="#D9DCDC"/>
<path transform="translate(653,183)" d="m0 0h30v1c-10.9 0.495-10.9 0.495-22 1-0.33 0.99-0.66 1.98-1 3h23v3c-1.26 0.0206-2.52 0.0412-3.81 0.0625-0.708 0.0116-1.42 0.0232-2.14 0.0352-2.04-0.0977-2.04-0.0977-5.04-1.1-1.41-0.145-2.82-0.246-4.23-0.316-0.802-0.0419-1.6-0.0838-2.43-0.127-0.833-0.0393-1.67-0.0786-2.53-0.119-0.845-0.0432-1.69-0.0864-2.56-0.131-2.08-0.106-4.17-0.207-6.25-0.307-0.33-1.98-0.66-3.96-1-6z" fill="#D9DCDC"/>
<path transform="translate(1060,623)" d="m0 0c15.4-0.156 30.7 0.319 46 1v1c-0.722 0.0251-1.44 0.0501-2.19 0.0759-3.25 0.116-6.5 0.238-9.75 0.362-1.14 0.0393-2.27 0.0786-3.44 0.119-1.62 0.0628-1.62 0.0628-3.27 0.127-1 0.0367-2 0.0733-3.03 0.111-2.28-0.048-2.28-0.048-3.32 1.21-6.33 0.531-11.9-0.204-18-2-0.33 0.99-0.66 1.98-1 3v-3h-2v-2z" fill="#D9DCDC"/>
<path transform="translate(290,539)" d="m0 0h3c0.0495 5.48 0.0858 11 0.11 16.4 0.0101 1.86 0.0237 3.73 0.041 5.59 0.0243 2.68 0.0356 5.36 0.0444 8.04 0.0103 0.832 0.0206 1.66 0.0313 2.52 0.00138 7.15 0.00138 7.15-2.23 10.4-0.786-5.53-1.14-10.9-1.1-16.4 0.00141-0.766 0.00283-1.53 0.00429-2.32 0.00554-2.41 0.0181-4.83 0.0309-7.24 0.00502-1.65 0.00958-3.3 0.0137-4.95 0.0109-4.02 0.0282-8.03 0.0488-12.1z" fill="#D7DBDC"/>
<path transform="translate(1041 543)" d="m0 0c1.11 0.00322 2.22 0.00645 3.37 0.00977 1.15 0.00838 2.3 0.0168 3.49 0.0254 1.17 0.00451 2.34 0.00902 3.54 0.0137 2.88 0.0118 5.76 0.0282 8.64 0.0488v2c-6.68 1.73-12.7 2.26-19.6 2.12-0.913-0.00902-1.83-0.018-2.77-0.0273-2.22-0.0233-4.45-0.056-6.67-0.0977-0.33-0.99-0.66-1.98-1-3 3.72-0.863 7.14-1.12 11-1.1z" fill="#D7DBDC"/>
<path transform="translate(1033,140)" d="m0 0h1v26h-6c0.66-0.99 1.32-1.98 2-3-1.32-0.33-2.64-0.66-4-1v-3c0.33 0.33 0.66 0.66 1 1 0.66-1.65 1.32-3.3 2-5h4v-15z" fill="#D9DCDC"/>
<path transform="translate(912,359)" d="m0 0h1c0.196 10.7-0.409 21.3-1 32h-3c-0.0544-2.85-0.0938-5.71-0.125-8.56-0.0168-0.8-0.0335-1.6-0.0508-2.42-0.0412-5.05 0.592-9.17 2.18-14 0.37-2.33 0.714-4.66 1-7z" fill="#DADDDC"/>
<path transform="translate(856,144)" d="m0 0h3c1.16 4.05 0.837 6.22-1 10h2c0.95 3.7 0.95 6.3 0 10h-2c-0.33 0.66-0.66 1.32-1 2-0.941-2.82-1.12-4.53-1.1-7.45 0.00322-0.848 0.00645-1.7 0.00977-2.57 0.00838-0.881 0.0168-1.76 0.0254-2.67 0.00451-0.893 0.00902-1.79 0.0137-2.71 0.0118-2.2 0.0282-4.4 0.0488-6.61z" fill="#D9DCDC"/>
<path transform="translate(303,356)" d="m0 0h6v12h-6v-12z" fill="#DADDDC"/>
<path transform="translate(1075,333)" d="m0 0c0.66 0.66 1.32 1.32 2 2 0.66-0.66 1.32-1.32 2-2 0.66 0.33 1.32 0.66 2 1v2h2c-0.33 0.99-0.66 1.98-1 3-1.98-0.66-3.96-1.32-6-2v11c-1.32 0.33-2.64 0.66-4 1 0-13 0-13 1.5-14.7 0.743-0.65 0.743-0.65 1.5-1.31z" fill="#D7DBDC"/>
<path transform="translate(1069,686)" d="m0 0c6.43-0.0951 12.7-0.153 19 1v3h-19v-4z" fill="#D7DBDC"/>
<path transform="translate(533,314)" d="m0 0c0.66 0.66 1.32 1.32 2 2l2-1v4h-3c0.186 0.701 0.371 1.4 0.562 2.12 0.489 3.21 0.0998 5.71-0.562 8.88h-2v7h2v3h-2c-3.52-5.29-1.95-11.3-1.06-17.3 0.174-1.21 0.348-2.43 0.527-3.68 0.535-3.01 0.535-3.01 1.54-5.01z" fill="#DADDDC"/>
<path transform="translate(853,707)" d="m0 0 10 2c-3.79 1.89-4.82 2.24-8.77 2.14-0.941-0.0202-1.88-0.0403-2.85-0.0611-1.51-0.0483-1.51-0.0483-3.05-0.0976-1.04-0.025-2.08-0.0501-3.14-0.0758-3.31-0.0821-6.62-0.179-9.93-0.276-2.25-0.0582-4.49-0.116-6.74-0.172-5.5-0.14-11-0.292-16.5-0.453v-1c5.2-0.168 10.4-0.328 15.6-0.482 1.77-0.0533 3.53-0.109 5.3-0.166 2.54-0.0822 5.08-0.157 7.63-0.231 0.789-0.027 1.58-0.0541 2.39-0.0819 3.57-0.0968 6.67-0.0108 10.1 0.961v-2z" fill="#DADDDC"/>
<path transform="translate(737,137)" d="m0 0v29h-5c1.32-0.33 2.64-0.66 4-1v-4h-2v-6h2c-0.141-1.96-0.288-3.92-0.438-5.88-0.0812-1.09-0.162-2.18-0.246-3.3-0.146-2.77-0.146-2.77-1.32-4.82h2c-2.4-2.4-3.33-2.34-6.62-2.62-1.23-0.112-1.23-0.112-2.48-0.227-0.626-0.049-1.25-0.098-1.9-0.148v-1c1.44-0.196 2.87-0.381 4.31-0.562 0.801-0.104 1.6-0.209 2.43-0.316 2.26-0.121 2.26-0.121 5.26 0.879z" fill="#D9DCDC"/>
<path transform="translate(879,88)" d="m0 0c2.42-0.0541 4.83-0.0937 7.25-0.125 0.682-0.0168 1.36-0.0335 2.07-0.0508 3.74-0.0364 6.51 0.0963 9.68 2.18h-2v2h-3v-2h-2v2h-11c-0.33-1.32-0.66-2.64-1-4z" fill="#D9DCDC"/>
<path transform="translate(303,445)" d="m0 0h6v10h-6v-10z" fill="#DADDDC"/>
<path transform="translate(701,373)" d="m0 0h6v10h-6v-10z" fill="#DADDDC"/>
<path transform="translate(39,180)" d="m0 0c0.66 0.66 1.32 1.32 2 2 0.66-0.33 1.32-0.66 2-1 1.27 4.69 0.911 9.03 0.562 13.8-0.0522 0.788-0.104 1.58-0.158 2.39-0.129 1.93-0.266 3.87-0.404 5.8h-3c-0.33-7.59-0.66-15.2-1-23z" fill="#D9DCDC"/>
<path transform="translate(912,500)" d="m0 0c0.958 2.88 1.07 4.29 0.879 7.23-0.0483 0.802-0.0967 1.6-0.146 2.43-0.0561 0.833-0.112 1.67-0.17 2.53-0.0522 0.845-0.104 1.69-0.158 2.56-0.13 2.08-0.266 4.17-0.404 6.25h-3c-0.0816-2.38-0.141-4.75-0.188-7.12-0.0377-0.998-0.0377-0.998-0.0762-2.02-0.0695-4.73 0.861-7.81 3.26-11.9z" fill="#DADDDC"/>
<path transform="translate(1191,651)" d="m0 0c1.77-0.0271 3.54-0.0464 5.31-0.0625 0.986-0.0116 1.97-0.0232 2.99-0.0352 2.7 0.0977 2.7 0.0977 5.7 1.1v3h-15c0.33-1.32 0.66-2.64 1-4z" fill="#D7DBDC"/>
<path transform="translate(1176,664)" d="m0 0h1v15h-4v-13h3v-2z" fill="#D7DBDC"/>
<path transform="translate(917,443)" d="m0 0h3c0.107 6.44-0.0379 12.6-1 19h-2c-0.194-2.79-0.381-5.58-0.562-8.38-0.0561-0.794-0.112-1.59-0.17-2.41-0.381-5.99-0.381-5.99 0.732-8.22z" fill="#D9DCDC"/>
<path transform="translate(303,304)" d="m0 0h2c0.0272 2.83 0.047 5.67 0.0625 8.5 0.00838 0.791 0.0168 1.58 0.0254 2.4 0.021 5.13-0.349 10-1.09 15.1h-2c-0.0291-3.58-0.0468-7.17-0.0625-10.8-0.00838-1.02-0.0168-2.03-0.0254-3.08-0.00322-0.98-0.00645-1.96-0.00977-2.97-0.00524-0.901-0.0105-1.8-0.0159-2.73 0.106-2.31 0.462-4.26 1.11-6.47z" fill="#DADDDC"/>
<path transform="translate(1039,187)" d="m0 0v3c1.32 0.66 2.64 1.32 4 2-2.64 1.32-4.68 1.1-7.62 1.06-1-0.00902-2.01-0.018-3.04-0.0273-0.771-0.0116-1.54-0.0232-2.34-0.0352v-2h-2v-2c3.82-1.42 6.91-2.24 11-2z" fill="#DADDDC"/>
<path transform="translate(303,494)" d="m0 0h6v8h-6v-8z" fill="#DADDDC"/>
<path transform="translate(906,432)" d="m0 0 2 1c0.226 3.1 0.428 6.21 0.625 9.31 0.0645 0.881 0.129 1.76 0.195 2.67 0.0516 0.848 0.103 1.7 0.156 2.57 0.0524 0.78 0.105 1.56 0.159 2.36-0.135 2.08-0.135 2.08-2.14 5.08-1.55-3.09-1.42-6.41-1.62-9.81-0.0516-0.712-0.103-1.42-0.156-2.16-0.243-3.86-0.206-7.28 0.781-11z" fill="#DADDDC"/>
<path transform="translate(657,50)" d="m0 0h1c2.3 9.41 2.3 9.41 2 14h-2v10h-1c-0.196-2.87-0.382-5.75-0.562-8.62-0.0561-0.808-0.112-1.62-0.17-2.45-0.274-4.49-0.236-8.49 0.732-12.9z" fill="#DADDDC"/>
<path transform="translate(1071,490)" d="m0 0h6v7h-6v-7z" fill="#DADDDC"/>
<path transform="translate(303,375)" d="m0 0h6v7h-6v-7z" fill="#DADDDC"/>
<path transform="translate(91,173)" d="m0 0h13c0.33 0.99 0.66 1.98 1 3h-15c0.33-0.99 0.66-1.98 1-3z" fill="#D7DBDC"/>
<path transform="translate(703,187)" d="m0 0c0.33 0.99 0.66 1.98 1 3 0.66 0.33 1.32 0.66 2 1h-2v2c-3.63-0.66-7.26-1.32-11-2 0.99-0.33 1.98-0.66 3-1v-2c2.46-1.23 4.28-1.07 7-1z" fill="#DADDDC"/>
<path transform="translate(815,173)" d="m0 0h6c0.33 0.99 0.66 1.98 1 3-5.53 0.942-10.8 1.12-16.4 1.06-0.827-0.00451-1.65-0.00902-2.51-0.0137-2.02-0.0117-4.04-0.0296-6.06-0.0488v-1c8.41-0.495 8.41-0.495 17-1 0.33-0.66 0.66-1.32 1-2z" fill="#D7DBDC"/>
<path transform="translate(701,633)" d="m0 0h6v6h-6v-6z" fill="#DADDDC"/>
<path transform="translate(347,569)" d="m0 0h11c-4 3-4 3-6 3v2h-5v-5z" fill="#DADDDC"/>
<path transform="translate(1181,664)" d="m0 0h1v10h-4v-8h3v-2z" fill="#D7DBDC"/>
<path transform="translate(909,613)" d="m0 0c1.32 0.33 2.64 0.66 4 1v9c-1.32 0.33-2.64 0.66-4 1 0.186-0.516 0.371-1.03 0.562-1.56 0.592-3.3 0.00477-6.16-0.562-9.44z" fill="#DADDDC"/>
<path transform="translate(864,331)" d="m0 0c0.959 0.278 0.959 0.278 1.94 0.562 1.02 0.217 1.02 0.217 2.06 0.438 0.33-0.33 0.66-0.66 1-1 2.06 0.438 2.06 0.438 4 1h-2v3h-11v-2h4v-2z" fill="#D7DBDC"/>
<path transform="translate(615,87)" d="m0 0c0.33 0.66 0.66 1.32 1 2 0.99 0.66 1.98 1.32 3 2h-12c-0.33-0.99-0.66-1.98-1-3 3.07-0.911 5.8-1.09 9-1z" fill="#C3C7C8"/>
<path transform="translate(310,494)" d="m0 0h4v8h-4v-8z" fill="#DADDDC"/>
<path transform="translate(864,326)" d="m0 0c1.32 0.33 2.64 0.66 4 1h-2v2c0.413-0.516 0.825-1.03 1.25-1.56 0.577-0.474 1.15-0.949 1.75-1.44 2.19 0.312 2.19 0.312 4 1h-2v3h-11v-2h4v-2z" fill="#D7DBDC"/>
<path transform="translate(1170,647)" d="m0 0h12c-0.33 1.32-0.66 2.64-1 4-3-1-3-1-4-2-0.33 0.66-0.66 1.32-1 2-0.99-0.33-1.98-0.66-3-1v-2c-0.99-0.33-1.98-0.66-3-1z" fill="#D7DBDC"/>
<path transform="translate(999,188)" d="m0 0c0.33 0.99 0.66 1.98 1 3h-11c0.33-0.99 0.66-1.98 1-3 3.48-1.16 5.46-0.708 9 0z" fill="#DADDDC"/>
<path transform="translate(870,173)" d="m0 0h9c0.33 0.99 0.66 1.98 1 3h-11c0.33-0.99 0.66-1.98 1-3z" fill="#D7DBDC"/>
<path transform="translate(298,574)" d="m0 0h2v11h-2c-0.33 0.66-0.66 1.32-1 2 0.33-4.29 0.66-8.58 1-13z" fill="#DADDDC"/>
<path transform="translate(310,448)" d="m0 0h4v7h-4v-7z" fill="#DADDDC"/>
<path transform="translate(1280,561)" d="m0 0c0.33 0.66 0.66 1.32 1 2-8.43 2.29-8.43 2.29-13 2 0.33-0.99 0.66-1.98 1-3 3.73-0.879 7.17-1.09 11-1z" fill="#D7DBDC"/>
<path transform="translate(903,330)" d="m0 0h3v9h-3v-9z" fill="#D7DBDC"/>
<path transform="translate(917,328)" d="m0 0h3v13h-1c-0.33-1.98-0.66-3.96-1-6h-1v-7z" fill="#DADDDC"/>
<path transform="translate(881,94)" d="m0 0h11c-0.33 0.99-0.66 1.98-1 3h-10v-3z" fill="#DADDDC"/>
<path transform="translate(920,476)" d="m0 0h1v24h-1v-24z" fill="#030303"/>
<path transform="translate(920,357)" d="m0 0h1v19h-1v-19z" fill="#030303"/>
<path transform="translate(920,454)" d="m0 0h1v8h-1v-8z" fill="#030303"/>
</svg>
