<?xml version="1.0" encoding="UTF-8"?>
<svg version="1.1" viewBox="0 0 1600 784" width="1280" height="1280" xmlns="http://www.w3.org/2000/svg">
<path transform="translate(82,88)" d="m0 0h1426c-0.33 0.66-0.66 1.32-1 2-0.0928 1.35-0.124 2.7-0.124 4.04-0.00337 1.28-0.00337 1.28-0.00681 2.59 0.00263 0.945 0.00525 1.89 0.00796 2.86-0.00115 1-0.00231 2-0.0035 3.04-0.00267 3.4 0.00186 6.79 0.00629 10.2-4.36e-4 2.44-0.00131 4.89-0.00259 7.33-0.00178 5.33-4.22e-4 10.7 0.00364 16 0.00602 7.93 0.00634 15.9 0.00546 23.8-0.00132 13.3 0.00203 26.7 0.00802 40 0.00591 13.2 0.00976 26.4 0.0109 39.6 6.87e-5 0.821 1.37e-4 1.64 2.08e-4 2.49 3.38e-4 4.17 6.4e-4 8.33 9.27e-4 12.5 0.0021 29.5 0.00884 59.1 0.0183 88.6 0.00918 28.7 0.0163 57.4 0.0205 86.1 1.32e-4 0.884 2.63e-4 1.77 3.99e-4 2.68 0.00132 8.88 0.00259 17.8 0.00384 26.6 0.00254 18.1 0.00536 36.2 0.00835 54.3 2.06e-4 1.25 2.06e-4 1.25 4.16e-4 2.52 0.00921 55.6 0.0251 111 0.0419 167-51.4 0.0513-103 0.0991-154 0.127-1.14 6.21e-4 -1.14 6.21e-4 -2.3 0.00126-16.5 0.00898-33 0.0173-49.5 0.0249-8.09 0.00374-16.2 0.00763-24.3 0.0116-0.805 3.92e-4 -1.61 7.85e-4 -2.44 0.00119-26.1 0.0128-52.3 0.0353-78.4 0.0629-26.8 0.0283-53.7 0.0468-80.5 0.0529-3.79 8.65e-4 -7.57 0.00184-11.4 0.00289-1.12 3.03e-4 -1.12 3.03e-4 -2.26 6.13e-4 -12 0.00355-24 0.0175-36.1 0.0353-12.1 0.0176-24.1 0.0244-36.2 0.02-6.55-0.00209-13.1 0.00113-19.6 0.0171-5.98 0.0145-12 0.0154-17.9 0.00508-2.17-0.00128-4.35 0.00261-6.52 0.012-2.94 0.0119-5.87 0.00564-8.81-0.00551-0.859 0.00788-1.72 0.0158-2.6 0.0239-2.35-0.0204-2.35-0.0204-6.06-0.393-2.63-3.94-2.27-7.3-2.24-11.9-0.0019-0.908-0.0038-1.82-0.00575-2.75-0.00371-3.01 7e-3 -6.01 0.0182-9.02 0.00119-2.09 0.00164-4.18 0.00139-6.27 0.00157-4.38 0.00986-8.76 0.0233-13.1 0.017-5.61 0.0208-11.2 0.0201-16.8 2.72e-4 -4.32 0.00576-8.63 0.013-12.9 0.00318-2.07 0.00515-4.14 0.00589-6.21 0.00217-2.9 0.0109-5.79 0.0216-8.69-4.53e-4 -0.853-9.06e-4 -1.71-0.00137-2.58 0.00426-0.795 0.00853-1.59 0.0129-2.41 0.00168-0.684 0.00335-1.37 0.00508-2.07 0.161-2.75 0.675-5.48 1.13-8.2h233c-0.33-26.7-0.66-53.5-1-81h2l-1-4-807-1c-0.843 24.5-0.843 24.5-1.11 49 3.09e-4 1.59 1.69e-4 3.17-3.65e-4 4.76-2.19e-4 4.13 0.00544 8.25 0.0126 12.4 0.00583 3.92 0.00597 7.83 0.00668 11.8 0.00518 11.3 0.0191 22.7 0.0321 34l0.0625 77.1h-310c-0.913-2.74-1.13-4.32-1.13-7.14-0.0025-0.849-0.00501-1.7-0.00759-2.57 0.00234-0.935 0.00468-1.87 0.00709-2.83-0.00145-0.995-0.00291-1.99-0.0044-3.02-0.00368-3.37-1.65e-4 -6.74 0.00326-10.1-0.00115-2.43-0.00274-4.85-0.00473-7.28-0.00332-5.29-0.0035-10.6-9.53e-4 -15.9 0.00377-7.87 0.00185-15.7-0.00121-23.6-0.00527-14-0.00481-28.1-0.00192-42.1 0.00251-12.3 0.00317-24.6 0.00198-36.9-7.64e-5 -0.815-1.53e-4 -1.63-2.31e-4 -2.47-3.11e-4 -3.31-6.3e-4 -6.61-9.6e-4 -9.92-0.00306-31-2.82e-4 -62.1 0.0051-93.1 0.00475-27.6 0.00432-55.2-4.61e-4 -82.8-0.00535-31-0.00748-62-0.00439-92.9 3.21e-4 -3.3 6.34e-4 -6.6 9.43e-4 -9.9 7.91e-5 -0.813 1.58e-4 -1.63 2.4e-4 -2.46 0.00114-12.3-1.96e-4 -24.6-0.00272-36.9-0.00285-14-0.00216-27.9 0.00328-41.9 0.00294-7.82 0.00312-15.6-6.46e-4 -23.5-0.00249-5.83 1.95e-4 -11.7 0.00497-17.5 0.00112-2.37 5.34e-4 -4.74-0.00188-7.1-0.00301-3.2 4.64e-5 -6.4 0.00472-9.6-0.00234-0.935-0.00468-1.87-0.00709-2.83 0.0025-0.849 0.00501-1.7 0.00759-2.57 6.78e-5 -0.733 1.36e-4 -1.47 2.05e-4 -2.22 0.125-1.92 0.125-1.92 1.13-4.92zm311 93c-1.23 8.02-2.3 15-2.23 23 5.04e-5 0.895 1.01e-4 1.79 1.53e-4 2.71 0.00357 2.87 0.0224 5.74 0.0428 8.61 0.00754 1.99 0.0148 3.99 0.0217 5.98 0.0574 12.2 0.24 24.3 0.603 36.5 0.0195 0.683 0.0389 1.37 0.059 2.07-0.446 6.53-0.446 6.53 1.5 12.2 1.76 0.0978 3.53 0.124 5.3 0.124 1.16 0.00225 2.32 0.00449 3.51 0.00681 1.94-0.00394 1.94-0.00394 3.92-0.00796 1.38 7.39e-4 2.75 0.00192 4.13 0.0035 3.82 0.00309 7.64-1.23e-4 11.5-0.00428 4.14-0.00342 8.29-0.00107 12.4 5.77e-4 7.27 0.00208 14.5 4.2e-4 21.8-0.00364 10.8-0.00602 21.6-0.00634 32.4-0.00546 18.2 0.00132 36.4-0.00204 54.6-0.00802 18-0.00591 36-0.00976 54-0.0109 1.12-6.87e-5 2.24-1.37e-4 3.39-2.08e-4 5.68-3.38e-4 11.4-6.4e-4 17-9.27e-4 40.3-0.0021 80.5-0.00885 121-0.0183 39.1-0.00918 78.3-0.0163 117-0.0205 1.21-1.32e-4 2.41-2.63e-4 3.65-3.99e-4 12.1-0.00132 24.2-0.00259 36.3-0.00384 24.7-0.00254 49.3-0.00536 74-0.00835 1.13-1.37e-4 2.27-2.75e-4 3.44-4.16e-4 58.7-0.00713 117-0.0185 176-0.0308 1.24-2.6e-4 1.24-2.6e-4 2.5-5.25e-4 16.2-0.00341 32.5-0.00702 48.7-0.0106v-91h-807zm0 159c-1.27 11.4-2.3 22.1-2.19 33.5 0.00761 1.4 0.0148 2.79 0.0217 4.19 0.0711 10.8 0.311 21.5 0.603 32.3 0.0195 0.752 0.0389 1.5 0.059 2.28 0.0566 2.12 0.12 4.23 0.187 6.35 0.0367 1.21 0.0733 2.42 0.111 3.66-0.0973 2.63-0.0973 2.63 1.21 3.71 1.76 0.0978 3.53 0.124 5.3 0.124 1.16 0.00225 2.32 0.00449 3.51 0.00681 1.94-0.00394 1.94-0.00394 3.92-0.00796 1.38 7.39e-4 2.75 0.00192 4.13 0.0035 3.82 0.00309 7.64-1.23e-4 11.5-0.00428 4.14-0.00342 8.29-0.00107 12.4 5.77e-4 7.27 0.00208 14.5 4.2e-4 21.8-0.00364 10.8-0.00602 21.6-0.00634 32.4-0.00546 18.2 0.00132 36.4-0.00204 54.6-0.00802 18-0.00591 36-0.00976 54-0.0109 1.12-6.87e-5 2.24-1.37e-4 3.39-2.08e-4 5.68-3.38e-4 11.4-6.4e-4 17-9.27e-4 40.3-0.0021 80.5-0.00885 121-0.0183 39.1-0.00918 78.3-0.0163 117-0.0205 1.21-1.32e-4 2.41-2.63e-4 3.65-3.99e-4 12.1-0.00132 24.2-0.00259 36.3-0.00384 24.7-0.00254 49.3-0.00536 74-0.00835 1.13-1.37e-4 2.27-2.75e-4 3.44-4.16e-4 75.8-0.00921 152-0.0251 227-0.0419v-3.09-82.9h-807z" fill="#D8DBDA"/>
<path transform="translate(1159,155)" d="m0 0h17v3h2v2h6c-1.81 1.06-1.81 1.06-4 2-0.99-0.33-1.98-0.66-3-1-0.33 0.66-0.66 1.32-1 2 3.96 0.495 3.96 0.495 8 1v2h8v5c1.32 0.33 2.64 0.66 4 1v2h2v2h4c0.33 0.99 0.66 1.98 1 3-1.75 2.25-2.63 2.95-5.5 3.37-1.01-0.00172-2.01-0.00343-3.05-0.0052-1.16 0.00531-2.33 0.0106-3.53 0.0161-1.29-0.00949-2.57-0.019-3.9-0.0287-1.38 5.11e-4 -2.76 0.00234-4.14 0.00537-3.82 0.00453-7.63-0.00981-11.5-0.027-4.14-0.0154-8.29-0.0135-12.4-0.0137-7.27-0.00277-14.5-0.0167-21.8-0.038-10.8-0.0315-21.6-0.0458-32.4-0.0566-18.2-0.0186-36.4-0.0512-54.5-0.0917-18-0.0401-36-0.074-54-0.0995-1.68-0.00239-1.68-0.00239-3.39-0.00483-5.68-0.00806-11.4-0.016-17-0.0239-40.3-0.0562-80.5-0.126-121-0.205-39.1-0.0761-78.2-0.146-117-0.207-1.21-0.00189-2.41-0.00378-3.65-0.00572-12.1-0.019-24.2-0.0378-36.3-0.0565-24.7-0.0382-49.3-0.0772-74-0.117-1.13-0.00182-2.27-0.00363-3.44-0.00551-75.7-0.122-151-0.263-227-0.408-0.166 2.06-0.329 4.12-0.492 6.18-0.0913 1.15-0.183 2.3-0.277 3.48-0.307 4.42-0.375 8.82-0.364 13.3-0.00136 0.889-0.00273 1.78-0.00414 2.7-2e-3 2.86 0.00425 5.72 0.0119 8.57 0.00122 0.979 0.00244 1.96 0.00369 2.97 0.0197 13.5 0.175 27.1 0.559 40.6 0.0293 1.1 0.0293 1.1 0.0593 2.21-0.5 6.98-0.5 6.98 1.5 13 1.69 0.0998 3.39 0.129 5.09 0.131 1.67 0.00552 1.67 0.00552 3.37 0.0112 1.86-0.00153 1.86-0.00153 3.75-0.0031 1.96 0.00426 1.96 0.00426 3.96 0.00861 3.66 0.00782 7.33 0.00934 11 0.00993 3.97 0.00172 7.95 0.0092 11.9 0.016 6.97 0.0111 13.9 0.0184 20.9 0.0234 10.4 0.00739 20.7 0.0205 31.1 0.0347 17.4 0.0238 34.9 0.043 52.3 0.0596 17.3 0.0164 34.6 0.0349 51.8 0.0561 1.07 0.00132 2.15 0.00264 3.25 0.00399 5.45 0.0067 10.9 0.0134 16.3 0.0202 38.6 0.0478 77.3 0.091 116 0.131 37.5 0.0393 75.1 0.0807 113 0.125 1.73 0.00204 1.73 0.00204 3.5 0.00413 11.6 0.0137 23.2 0.0274 34.8 0.0412 23.7 0.028 47.3 0.0558 71 0.0833 1.09 0.00127 2.18 0.00254 3.3 0.00384 72.7 0.0847 145 0.163 218 0.24 0.33 0.66 0.66 1.32 1 2 2.55 0.312 5 0.513 7.56 0.625 0.711 0.0387 1.42 0.0773 2.15 0.117 1.76 0.0945 3.52 0.177 5.28 0.258v2c0.626-0.0838 1.25-0.168 1.9-0.254 1.23-0.153 1.23-0.153 2.48-0.309 0.812-0.104 1.62-0.209 2.46-0.316 2.16-0.121 2.16-0.121 4.16 0.879v-2h3v9h-3v4c2.31 0.33 4.62 0.66 7 1 0.778 3.41 1.1 6.51 1 10-1.32-0.66-2.64-1.32-4-2-0.66 0.66-1.32 1.32-2 2-0.565-0.501-1.13-1-1.71-1.52-2.75-1.78-3.74-1.68-6.91-1.17-5.16 0.707-10.2 0.787-15.4 0.688-0.33 0.66-0.66 1.32-1 2h-78v2h-60v-2h-2v2h-3v-2h-450v2h-3v-2h-2v2h-18v-2h-30v2h-24v-2h-24c-0.33 0.66-0.66 1.32-1 2v-2h-4c-0.33 0.66-0.66 1.32-1 2v-2h-7v2h-9v-2h-50v2h-9v-2c-1.05 0.0174-1.05 0.0174-2.12 0.0352-0.91 0.00902-1.82 0.018-2.76 0.0273l-2.74 0.0352c-2.38-0.0977-2.38-0.0977-4.38-1.1v-2c-2.64-0.33-5.28-0.66-8-1-1.16-3.47-1.07-6.36-1-10h-2c-1.22-4.52-2.13-8.31-2-13-0.33-0.99-0.66-1.98-1-3 0.202-2.09 0.413-4.17 0.68-6.25 0.497-4.26 0.752-8.54 1.04-12.8 0.234-2.43 0.604-4.59 1.28-6.92l5-1c0.33-7.92 0.66-15.8 1-24-0.66-0.33-1.32-0.66-2-1h2v-4c-0.66-0.33-1.32-0.66-2-1h2v-6h-2v-2c-1.65-0.33-3.3-0.66-5-1v-1h5v-3c-1.65-0.33-3.3-0.66-5-1-0.027-1.62-0.0464-3.25-0.0625-4.88-0.0116-0.905-0.0232-1.81-0.0352-2.74 0.0977-2.38 0.0977-2.38 1.1-4.38h2c0.0606-0.82 0.121-1.64 0.184-2.48 0.0838-1.08 0.168-2.16 0.254-3.27 0.0812-1.07 0.162-2.13 0.246-3.23 0.258-2.46 0.698-4.64 1.32-7.02-0.0309-1.3-0.0309-1.3-0.0625-2.62 0.0625-2.38 0.0625-2.38 2.06-4.38 2.15-0.227 2.15-0.227 4.79-0.195 0.941 0.00645 1.88 0.0129 2.85 0.0195 0.985 0.0168 1.97 0.0335 2.98 0.0508 0.993 0.00902 1.99 0.018 3.01 0.0273 2.46 0.0236 4.91 0.0565 7.37 0.0977v3h-10v1c1.3 0.124 2.6 0.248 3.94 0.375 2.21 0.211 2.21 0.211 4.06 0.625 0.33 0.66 0.66 1.32 1 2 2.02 0.652 2.02 0.652 4 1 0.495-1.49 0.495-1.49 1-3h5v-2c-1.98-0.33-3.96-0.66-6-1v-2c1.58-0.0376 1.58-0.0376 3.2-0.0759 3.9-0.0939 7.8-0.194 11.7-0.296 1.69-0.0434 3.38-0.0851 5.07-0.125 2.43-0.0576 4.85-0.121 7.28-0.186 0.76-0.0167 1.52-0.0334 2.3-0.0506 3.52 0.213 3.52 0.213 6.45-1.27 1.58-0.0974 3.16-0.124 4.73-0.124 1.03-0.00225 2.07-0.00449 3.13-0.00681 1.73 0.00394 1.73 0.00394 3.49 0.00796 1.22-0.00115 2.43-0.00231 3.68-0.0035 3.4-0.00221 6.81 1.23e-4 10.2 0.00428 3.69 0.00342 7.38 0.00107 11.1-5.77e-4 6.48-0.00208 13-4.2e-4 19.4 0.00364 9.63 0.00602 19.3 0.00634 28.9 0.00546 16.2-0.00132 32.4 0.00204 48.6 0.00802 16.1 0.00591 32.1 0.00976 48.2 0.0109 1.5 1.03e-4 1.5 1.03e-4 3.02 2.08e-4 5.06 3.38e-4 10.1 6.4e-4 15.2 9.27e-4 35.9 0.0021 71.8 0.00884 108 0.0183 34.9 0.00918 69.7 0.0163 105 0.0205 1.07 1.32e-4 2.15 2.63e-4 3.25 3.99e-4 10.8 0.00132 21.6 0.00259 32.4 0.00384 22 0.00254 43.9 0.00536 65.9 0.00835 1.01 1.37e-4 2.02 2.75e-4 3.06 4.16e-4 67.5 0.00921 135 0.0251 203 0.0419v-2h-719v-1c8.56-0.765 17-1.14 25.6-1.12 1.21-0.00115 2.41-0.00231 3.66-0.0035 3.32-0.00218 6.65 8.11e-5 9.97 0.00428 3.63 0.00346 7.25 0.00106 10.9-5.77e-4 6.35-0.00207 12.7-4.42e-4 19 0.00364 9.44 0.00605 18.9 0.00633 28.3 0.00546 15.9-0.00131 31.8 0.00202 47.6 0.00802 15.7 0.00592 31.4 0.00977 47.2 0.0109 0.978 6.87e-5 1.96 1.37e-4 2.96 2.08e-4 4.97 3.38e-4 9.93 6.4e-4 14.9 9.27e-4 35.2 0.0021 70.3 0.00883 105 0.0183 34.2 0.00919 68.3 0.0163 102 0.0205 1.05 1.32e-4 2.11 2.63e-4 3.19 3.99e-4 10.6 0.00132 21.2 0.00259 31.7 0.00384 21.5 0.00254 43.1 0.00536 64.6 0.00835 0.99 1.37e-4 1.98 2.75e-4 3 4.16e-4 66.1 0.0092 132 0.025 198 0.0419v-5z" fill="#D7DAD9"/>
<path transform="translate(1495,100)" d="m0 0c0.66 0.33 1.32 0.66 2 1v2c0.66-0.99 1.32-1.98 2-3 3.62-0.188 3.62-0.188 7 0 0.0269 2.15 0.0463 4.29 0.0625 6.44 0.0116 1.19 0.0232 2.39 0.0352 3.62-0.0977 2.94-0.0977 2.94-1.1 3.94-0.104 2.91-0.142 5.79-0.139 8.7-0.00284 0.928-0.00568 1.86-0.00861 2.81-0.00841 3.15-0.00962 6.3-0.0109 9.45-0.00456 2.27-0.00956 4.53-0.015 6.8-0.0136 6.26-0.021 12.5-0.0274 18.8-0.00716 6.04-0.019 12.1-0.0307 18.1-0.0238 12.4-0.043 24.7-0.0596 37.1-0.0164 12.3-0.0349 24.5-0.0561 36.8-0.00198 1.14-0.00198 1.14-0.00399 2.31-0.0067 3.86-0.0134 7.73-0.0202 11.6-0.0478 27.4-0.091 54.8-0.131 82.2-0.0393 26.6-0.0807 53.2-0.125 79.9-0.00136 0.82-0.00273 1.64-0.00413 2.49-0.0137 8.24-0.0274 16.5-0.0412 24.7-0.028 16.8-0.0558 33.6-0.0833 50.3-0.0019 1.16-0.0019 1.16-0.00384 2.34-0.0847 51.5-0.163 103-0.24 155h-3v3c0.99 0.33 1.98 0.66 3 1v1c-1.39 0.0309-1.39 0.0309-2.81 0.0625-3.19 0.566-3.19 0.566-4.25 2.56-0.733 1.76-1.34 3.57-1.93 5.38-1.33-2.67-0.671-4.17 0-7-0.66-0.33-1.32-0.66-2-1v10c-1.32 0.33-2.64 0.66-4 1 0.66 0.99 1.32 1.98 2 3h-517c-0.6-7.2-1.12-13.9-1-21h-2l-1-9h4v-48h3v-2h2v2h3v-2h2v2c1.48-0.00786 1.48-0.00786 2.99-0.0159 3.7-0.0182 7.4-0.0296 11.1-0.0391 1.59-5e-3 3.19-0.0118 4.78-0.0205 2.3-0.0123 4.61-0.0178 6.91-0.0222 0.702-0.00516 1.4-0.0103 2.13-0.0156 4.78-5.31e-4 9.35 0.462 14.1 1.11 1.6 0.0805 3.21 0.131 4.81 0.125 1.09 0.00387 1.09 0.00387 2.21 0.00781 2.19-0.0635 2.19-0.0635 4.98-1.13v2c0.722-0.351 1.44-0.701 2.19-1.06 3.21-1.07 4.59-0.743 7.81 0.0625 2.67 0.168 2.67 0.168 5 0l1-1c2.75-0.101 5.47-0.136 8.22-0.129 0.862-0.00175 1.72-0.0035 2.61-0.00531 2.86-0.00442 5.73-0.00148 8.59 0.00189 1.98-6.73e-4 3.97-0.00164 5.95-0.0029 4.17-0.00148 8.33 6.78e-4 12.5 0.00534 5.34 0.00569 10.7 0.00243 16-0.00357 4.1-0.00361 8.2-0.00246 12.3 1.28e-4 1.97 6.68e-4 3.94-1.53e-4 5.91-0.00248 2.76-0.00254 5.51 0.00133 8.27 0.0069 0.816-0.00202 1.63-0.00405 2.47-0.00613 3.57 0.0134 6.69 0.275 10.1 1.14 2.57 0.045 5.12 0.0454 7.69 0 5.86-0.0585 11.5 0.169 17.3 1-0.186 0.619-0.371 1.24-0.562 1.88-0.674 2.17-0.674 2.17 0.562 4.12-0.33 0.99-0.66 1.98-1 3h-169v2c-2.97 0.66-5.94 1.32-9 2v20h-6v5c1.21-0.0309 1.21-0.0309 2.44-0.0625 2.56 0.0625 2.56 0.0625 3.56 1.06 0.0409 2.33 0.0424 4.67 0 7h3c0.125 6.62 0.125 6.62-1 10h2l2 3c5.31-0.582 5.31-0.582 10-3 2.52-0.411 2.52-0.411 5.52-0.633l3.29-0.254c1.14-0.0786 2.27-0.157 3.44-0.238 1.12-0.0864 2.24-0.173 3.39-0.262 5.46-0.406 10.9-0.724 16.4-0.613v-3h3v3h2v-3h3v3h8v-3h2v3h3v-3c46.8-0.0229 93.5-0.0405 140-0.0511 5.52-0.00125 11-0.00254 16.6-0.00387 1.1-2.62e-4 2.2-5.25e-4 3.33-7.95e-4 17.8-0.00435 35.6-0.0122 53.4-0.0214 18.3-0.00936 36.5-0.0149 54.8-0.0169 11.3-0.00137 22.5-0.00569 33.8-0.0138 7.73-0.0053 15.5-0.00688 23.2-0.00558 4.46 6.39e-4 8.91-3.23e-4 13.4-0.0057 4.09-0.0049 8.18-0.00509 12.3-0.00169 1.47 4.19e-4 2.94-8.21e-4 4.41-0.00398 9.24-0.0187 18.3 0.339 27.5 1.12v2h8c0.33-0.99 0.66-1.98 1-3h2v3h2c0.33-0.99 0.66-1.98 1-3h2v3h2v2h3v-2h2c0.0825-0.763 0.165-1.53 0.25-2.31 0.93-3.33 1.87-3.87 4.75-5.69 2.51-0.879 2.51-0.879 5.12-1.56 3.85-0.969 3.85-0.969 6.88-3.44 0.643-2.06 0.643-2.06 1.06-4.38 0.931-4.6 0.931-4.6 1.56-6.85 0.125-0.585 0.25-1.17 0.379-1.77-0.33-0.33-0.66-0.66-1-1-0.1-2.25-0.13-4.5-0.125-6.75-0.00258-1.23-0.00516-2.46-0.00781-3.73 0.113-2.99 0.54-5.6 1.13-8.52-0.33-0.33-0.66-0.66-1-1-0.0996-2.35-0.134-4.67-0.126-7.02-0.00145-0.747-0.00291-1.49-0.0044-2.26-0.00369-2.54-1.61e-4 -5.07 0.00326-7.61-0.00115-1.82-0.00274-3.65-0.00473-5.47-0.0042-5.04-0.0021-10.1 9.86e-4 -15.1 0.00225-5.42-0.00122-10.8-0.00398-16.3-0.00446-10.6-0.00348-21.3-5.87e-4 -31.9 0.00225-8.64 0.00257-17.3 0.00148-25.9-2.3e-4 -1.84-2.3e-4 -1.84-4.64e-4 -3.72-3.2e-4 -2.49-6.44e-4 -4.99-9.73e-4 -7.48-0.00277-22.7 1.09e-4 -45.5 0.00534-68.2 0.00474-20.8 0.00432-41.5-4.61e-4 -62.3-0.00535-23.3-0.00746-46.6-0.00439-70 3.19e-4 -2.49 6.33e-4 -4.97 9.43e-4 -7.46 1.54e-4 -1.22 3.09e-4 -2.45 4.68e-4 -3.71 8.64e-4 -8.63-5.96e-4 -17.3-0.00295-25.9-0.0028-10.5-0.00205-21 0.00328-31.6 0.00263-5.37 0.00365-10.7 3.51e-4 -16.1-0.00297-4.91-0.00135-9.83 0.00398-14.7 0.00112-1.78 5.43e-4 -3.56-0.00188-5.34-0.00303-2.42 6.87e-5 -4.83 0.00472-7.25-0.00234-0.695-0.00468-1.39-0.00709-2.11 0.0117-3.03 0.185-5.85 0.703-8.84 0.658-2.78 0.658-2.78-0.57-5.64-1.89-5.8 0.273-11.4 2-17.1h2v-5h-2v-7h-2c-0.993-5.71-1.1-11.2-1-17h-5v-2h-2v-2c0.66-0.33 1.32-0.66 2-1v-2h-2v-2h10v-2c1.49-0.495 1.49-0.495 3-1 1.67-1.5 1.67-1.5 3-3z" fill="#D7DAD9"/>
<path transform="translate(81,91)" d="m0 0h3c0.0251 0.994 0.0501 1.99 0.0759 3.01 0.0939 3.68 0.194 7.35 0.296 11 0.0434 1.59 0.0851 3.19 0.125 4.78 0.0576 2.29 0.121 4.57 0.186 6.86 0.0167 0.717 0.0334 1.43 0.0506 2.17-0.184 3.36-0.184 3.36 1.27 6.14 0.234 2.02 0.413 4.04 0.562 6.06 0.0838 1.1 0.168 2.21 0.254 3.35 0.0606 0.855 0.121 1.71 0.184 2.59h2c-0.66-1.98-1.32-3.96-2-6h2v-4c-0.66-0.33-1.32-0.66-2-1h2v-25h4c0.33-1.32 0.66-2.64 1-4v4h4c0.33-1.32 0.66-2.64 1-4v4c1.42-0.0309 1.42-0.0309 2.88-0.0625 3.12 0.0625 3.12 0.0625 5.12 1.06v2h5v2h6v3c-1.32 0.33-2.64 0.66-4 1 1.32 0.33 2.64 0.66 4 1v3c-1.32 0.33-2.64 0.66-4 1-1.65 7.59-3.3 15.2-5 23h-2v2h2v19h-2v5l3 1c-0.00114 1.37-0.00114 1.37-0.0023 2.77-0.0449 54.5-0.0792 109-0.0998 163-0.0025 6.56-0.00509 13.1-0.00773 19.7-7.87e-4 1.96-7.87e-4 1.96-0.00159 3.96-0.00866 21.1-0.0244 42.1-0.0429 63.2-0.0188 21.7-0.0298 43.3-0.0339 65-0.00272 13.3-0.0113 26.7-0.0277 40-0.0107 9.18-0.0137 18.4-0.0112 27.6 0.00126 5.27-4.27e-4 10.5-0.0114 15.8-0.0435 22 0.259 43.9 1.19 65.9 0.0432 1.04 0.0863 2.07 0.131 3.14 0.124 2.91 0.255 5.82 0.39 8.72 0.0379 0.867 0.0758 1.73 0.115 2.63 0.164 3.31 0.358 6.17 1.41 9.34 0.128 2.67 0.0439 5.32 0 8h2v-2c3.48-2.14 6.21-2.21 10.2-2.12 1.08 0.018 2.16 0.0361 3.27 0.0547l2.48 0.0703v-2h14v2h6v-2c17.7-0.928 35.3-1.16 53-1.13 2.16 0.00362 4.33 0.0052 6.49 0.00626 34.2 0.0206 68.3 0.533 103 1.12v2h28v2h15l1.19-4.38c1.45-4.42 1.45-4.42 4.38-6.06l2.44-0.562 2-2v2h4l1-2v2h9v-5h2v5h3v-5h2c1.25 7.65 1.09 15.3 1 23h-13v3l4-2c-0.547 3.37-1.05 5.08-3 8-0.99 0.33-1.98 0.66-3 1v-2l-5-1v-3h-2v4l2 1c-4.92 0.782-9.69 1.18-14.7 1.32-0.7 0.0208-1.4 0.0416-2.12 0.063-2.21 0.0647-4.42 0.124-6.63 0.183-1.51 0.0433-3.02 0.0869-4.53 0.131-3.68 0.107-7.36 0.207-11 0.307l15 1v1h-262c-0.913-2.74-1.12-4.33-1.12-7.14-0.00225-0.85-0.00449-1.7-0.00681-2.57 0.00263-0.935 0.00525-1.87 0.00796-2.83-0.00115-0.996-0.00231-1.99-0.0035-3.02-0.00267-3.37 0.00186-6.74 0.00629-10.1-4.36e-4 -2.43-0.00131-4.86-0.00259-7.28-0.00178-5.3-4.25e-4 -10.6 0.00364-15.9 0.00602-7.87 0.00634-15.7 0.00546-23.6-0.00132-13.2 0.00203-26.5 0.00802-39.7 0.00591-13.1 0.00977-26.2 0.0109-39.4 6.87e-5 -0.815 1.37e-4 -1.63 2.08e-4 -2.47 3.38e-4 -4.14 6.4e-4 -8.28 9.27e-4 -12.4 0.0021-29.3 0.00884-58.7 0.0183-88 0.00918-28.5 0.0163-57 0.0205-85.5 1.32e-4 -0.878 2.63e-4 -1.76 3.99e-4 -2.66 0.00132-8.82 0.00259-17.6 0.00384-26.5 0.00254-18 0.00536-35.9 0.00835-53.9 1.37e-4 -0.826 2.75e-4 -1.65 4.16e-4 -2.5 0.0092-55.2 0.0251-110 0.0419-166z" fill="#D7DAD9"/>
<path transform="translate(1177,307)" d="m0 0c3.16-0.804 3.16-0.804 6-2v2c1.65-0.66 3.3-1.32 5-2 1.05 3.15 1.1 5.39 1.06 8.69-0.00902 0.994-0.018 1.99-0.0273 3.01-0.0174 1.14-0.0174 1.14-0.0352 2.3 1.32 0.33 2.64 0.66 4 1v6h2v3h-2v2h2v3c0.866 0.217 0.866 0.217 1.75 0.438 2.08 0.521 4.17 1.04 6.25 1.56v6c-0.99-0.33-1.98-0.66-3-1-1.85-0.0942-3.7-0.129-5.55-0.131-1.75-0.00552-1.75-0.00552-3.53-0.0112-1.29 0.00102-2.57 0.00205-3.9 0.0031-1.38-0.00245-2.76-0.00533-4.14-0.00861-3.82-0.0078-7.63-0.00934-11.5-0.00993-4.14-0.00172-8.29-0.00921-12.4-0.016-7.27-0.0111-14.5-0.0184-21.8-0.0234-10.8-0.00739-21.6-0.0205-32.4-0.0347-18.2-0.0238-36.4-0.043-54.5-0.0596-18-0.0164-36-0.0349-54-0.0561-1.68-0.00198-1.68-0.00198-3.39-0.00399-5.68-0.0067-11.4-0.0134-17-0.0202-40.3-0.0478-80.5-0.091-121-0.131-39.1-0.0393-78.2-0.0807-117-0.125-1.21-0.00136-2.41-0.00273-3.65-0.00413-12.1-0.0137-24.2-0.0274-36.3-0.0412-24.7-0.028-49.3-0.0558-74-0.0833-1.13-0.00127-2.27-0.00254-3.44-0.00384-75.7-0.0847-151-0.163-227-0.24-0.33 3.3-0.66 6.6-1 10-0.33-0.99-0.66-1.98-1-3h-2c0.0116 0.804 0.0232 1.61 0.0352 2.44 0.0596 7.77-0.151 15.5-0.535 23.2-0.79 16.4-0.589 32.9-0.5 49.3-0.798 0.255-1.6 0.51-2.42 0.773-3 1.05-3 1.05-3.89 4.85-0.227 1.11-0.454 2.23-0.688 3.38h-2c-0.33-2.31-0.66-4.62-1-7-0.66 2.31-1.32 4.62-2 7h-2c-0.0289-3.15-0.0468-6.29-0.0625-9.44-0.00838-0.898-0.0168-1.8-0.0254-2.72l-0.00977-2.59c-0.00786-1.19-0.00786-1.19-0.0159-2.4 0.114-1.86 0.114-1.86 1.11-2.86h5v-30h-2v-2h-4c-1.15-6.34-1.1-12.6-1-19 1.48-0.495 1.48-0.495 3-1-0.66-0.66-1.32-1.32-2-2 1.48-0.495 1.48-0.495 3-1v2c1.98-0.495 1.98-0.495 4-1-0.66-1.65-1.32-3.3-2-5 0.66-0.66 1.32-1.32 2-2 0.46-2.2 0.46-2.2 0.625-4.62 0.0748-0.817 0.15-1.63 0.227-2.48 0.0735-0.94 0.0735-0.94 0.148-1.9-0.66 0.66-1.32 1.32-2 2 0.164 0.614 0.327 1.23 0.496 1.86 0.663 2.82-0.0607 3.89-1.43 6.39-0.38 0.706-0.761 1.41-1.15 2.14-0.3 0.531-0.601 1.06-0.91 1.61-0.99-0.99-1.98-1.98-3-3h2c-0.0206-1.07-0.0412-2.14-0.0625-3.25 0.0483-2.9 0.194-5.04 1.06-7.75h2c-0.206-0.681-0.412-1.36-0.625-2.06-0.476-3.73 0.448-6.41 1.62-9.94h2v-3h4c0.33 0.99 0.66 1.98 1 3v-3c0.984 0.00786 0.984 0.00786 1.99 0.0159 2.96 0.0207 5.92 0.0338 8.89 0.0466 1.03 0.00838 2.07 0.0168 3.13 0.0254 0.986 0.00322 1.97 0.00645 2.99 0.00977 0.911 0.00524 1.82 0.0105 2.76 0.0159 2.28 0.0353 2.28 0.0353 4.25-1.11 0.66 0.33 1.32 0.66 2 1v-2c14-1.33 28-1.14 42.1-1.12 3.71 0.00346 7.42 0.00106 11.1-5.77e-4 6.49-0.00207 13-4.45e-4 19.5 0.00364 9.65 0.00605 19.3 0.00633 28.9 0.00546 16.2-0.00131 32.5 0.00202 48.7 0.00802 16.1 0.00592 32.1 0.00977 48.2 0.0109 1 6.87e-5 2 1.37e-4 3.03 2.08e-4 5.08 3.38e-4 10.2 6.4e-4 15.2 9.27e-4 35.9 0.0021 71.9 0.00883 108 0.0183 34.9 0.00919 69.8 0.0163 105 0.0205 1.08 1.32e-4 2.15 2.63e-4 3.26 3.99e-4 10.8 0.00132 21.6 0.00259 32.4 0.00384 22 0.00254 44.1 0.00536 66.1 0.00835 1.52 2.06e-4 1.52 2.06e-4 3.07 4.16e-4 67.6 0.0092 135 0.025 203 0.0419-0.00757-1.27-0.0151-2.54-0.0229-3.84-0.0263-4.41 0.693-7.94 2.02-12.2 6.06-3.03 19.4-3.75 25 0z" fill="#D7DAD9"/>
<path transform="translate(1129 429)" d="m0 0c0.957 0.0222 1.91 0.0443 2.9 0.0671 0.872 0.0351 1.74 0.0702 2.64 0.106 1.14 0.0385 1.14 0.0385 2.29 0.0778 2.45 0.535 3.39 1.54 4.98 3.43-0.33 0.66-0.66 1.32-1 2h2c0.33-0.66 0.66-1.32 1-2 0.125 7.63 0.125 7.63-1 11h-22v2h-670v-5h-26v3c-0.722 0.0553-1.44 0.111-2.19 0.168-3.25 0.252-6.5 0.511-9.75 0.77-1.14 0.087-2.27 0.174-3.44 0.264-1.08 0.087-2.16 0.174-3.27 0.264-1 0.0786-2 0.157-3.03 0.238-2.28 0.0518-2.28 0.0518-3.32 1.3-2 0.0408-4 0.0425-6 0-0.33 0.99-0.66 1.98-1 3v-3h-4c-0.33 0.99-0.66 1.98-1 3-0.33-3.3-0.66-6.6-1-10h2v-2h11c0.678-2.9 0.678-2.9 1-6-0.66-0.66-1.32-1.32-2-2 68-0.113 136-0.224 204-0.328 1.01-0.00155 2.02-0.0031 3.05-0.00469 21.9-0.0336 43.8-0.067 65.7-0.1 10.7-0.0163 21.5-0.0326 32.2-0.0489 1.07-0.00163 2.14-0.00325 3.24-0.00493 34.6-0.0527 69.2-0.109 104-0.166 35.6-0.0594 71.2-0.115 107-0.167 5.03-0.00731 10.1-0.0147 15.1-0.022 1.49-0.00218 1.49-0.00218 3-0.0044 15.9-0.0234 31.8-0.0504 47.7-0.0787 16-0.0284 32-0.0531 48-0.0739 9.5-0.0125 19-0.0278 28.5-0.0473 6.36-0.0128 12.7-0.0217 19.1-0.0277 3.62-0.0035 7.23-0.00854 10.8-0.0183 13-0.0338 26-0.013 39 0.411z" fill="#D7DAD9"/>
<path transform="translate(392,425)" d="m0 0c267 0.33 533 0.66 808 1v4c-76.8 0.0343-154 0.0661-230 0.0847-1.14 2.76e-4 -2.27 5.52e-4 -3.44 8.37e-4 -24.7 0.00599-49.4 0.0115-74.1 0.0166-12.1 0.00249-24.2 0.00509-36.3 0.00773-1.2 2.62e-4 -2.41 5.23e-4 -3.65 7.92e-4 -39.1 0.00853-78.2 0.0236-117 0.0419-40.1 0.0188-80.3 0.0312-120 0.0352-5.66 5.76e-4 -11.3 0.00123-17 0.00192-1.67 2.02e-4 -1.67 2.02e-4 -3.38 4.09e-4 -18 0.00237-36 0.0117-53.9 0.0235-18.1 0.0117-36.1 0.0163-54.2 0.0133-10.7-0.00153-21.5 0.00258-32.2 0.0146-7.16 0.00746-14.3 0.00776-21.5 0.00207-4.09-0.00304-8.18-0.00281-12.3 0.0061-3.71 0.00803-7.42 0.00703-11.1-0.00149-1.98-0.00212-3.96 0.00566-5.94 0.0137-1.16-0.00449-2.32-0.00899-3.51-0.0136-1.01 3.12e-4 -2.01 6.24e-4 -3.05 9.45e-4 -2.37-0.249-2.37-0.249-4.37-2.25v-3z"/>
<path transform="translate(385,480)" d="m0 0c2.48 0.99 2.48 0.99 5 2v-2c1.58 0.311 3.17 0.624 4.75 0.938 0.882 0.174 1.76 0.348 2.67 0.527 2.21 0.459 4.39 0.969 6.58 1.54v3h-7c3.05 1.73 5.5 2.34 8.98 2.62 0.998 0.0827 2 0.165 3.03 0.251 1.63 0.116 1.63 0.116 3.29 0.235 1.15 0.0843 2.3 0.169 3.49 0.255 13.4 0.895 26.8 0.915 40.2 0.886 3.8-0.00608 7.59-3.1e-4 11.4 0.00382 6.63 0.00563 13.3 0.00399 19.9-0.00269 9.85-0.00989 19.7-0.00817 29.6-0.00425 16.6 0.00625 33.2 0.00313 49.7-0.00559 16.4-0.00863 32.8-0.0135 49.2-0.0133 1.02 7.65e-6 2.05 1.53e-5 3.1 2.32e-5 4.16 4.09e-5 8.31 1.07e-4 12.5 2.06e-4 38.9 9.05e-4 77.8-0.00902 117-0.0244 34.6-0.0136 69.1-0.0199 104-0.0192 2.22 4.04e-5 4.44 8.08e-5 6.66 1.21e-4 1.65 3.05e-5 1.65 3.05e-5 3.33 6.17e-5 5.53 1.01e-4 11.1 1.91e-4 16.6 2.7e-4 1.64 2.51e-5 1.64 2.51e-5 3.3 5.06e-5 28.9 3.65e-4 57.8-0.00417 86.7-0.0104 1.03-2.2e-4 2.06-4.41e-4 3.12-6.67e-4 4.14-8.88e-4 8.27-0.00178 12.4-0.00269 14.4-0.00316 28.7-0.00467 43.1-0.00511 18.5-5.97e-4 37-0.0046 55.5-0.0144 9.79-0.00511 19.6-0.00753 29.4-6e-3 6.54 7.36e-4 13.1-0.00218 19.6-0.00804 3.72-0.00324 7.45-0.00495 11.2-0.00224 4.02 0.00288 8.04-0.00201 12.1-0.00761 1.72 0.00308 1.72 0.00308 3.47 0.00623 13.1 0.193 13.1 0.193 26-1.72 2.44-0.585 3.51 0.455 5.71 1.59 1.22 0.165 2.43 0.33 3.69 0.5 1.64 0.248 1.64 0.248 3.31 0.5 0.33 0.66 0.66 1.32 1 2h-805c-0.33 2.97-0.66 5.94-1 9-1.65-0.33-3.3-0.66-5-1 0.162 0.706 0.325 1.41 0.492 2.14 0.524 2.95 0.634 5.66 0.635 8.65 0.00282 1.16 0.00564 2.31 0.00854 3.51-0.00202 1.26-0.00405 2.52-0.00613 3.82 0.00136 1.35 0.00314 2.69 0.00531 4.04 0.00455 3.65 0.00279 7.3-3.79e-4 11-0.00253 3.82-1.83e-4 7.64 0.00139 11.5 0.00182 6.41-5.76e-4 12.8-0.00534 19.2-0.00545 7.42-0.00367 14.8 0.00183 22.3 0.00453 6.37 0.00518 12.7 0.00256 19.1-0.00156 3.8-0.00176 7.61 0.00154 11.4 0.00288 3.57 8.98e-4 7.15-0.00489 10.7-0.00196 1.94 0.00102 3.88 0.00413 5.82-0.00282 1.15-0.00564 2.3-0.00854 3.48-3.77e-4 1-7.54e-4 2-0.00114 3.04-0.126 2.37-0.126 2.37-1.13 4.37h-2v-119h-2c9.22e-4 0.601 0.00184 1.2 0.00279 1.82 0.0221 14.6 0.0386 29.2 0.049 43.8 0.00516 7.07 0.0122 14.1 0.0236 21.2 0.011 6.81 0.0168 13.6 0.0194 20.4 0.00185 2.61 0.00547 5.21 0.0109 7.82 0.00722 3.64 0.00826 7.27 0.0078 10.9 0.0036 1.09 0.00719 2.17 0.0109 3.29-0.00137 0.987-0.00275 1.97-0.00417 2.99 9.22e-4 0.861 0.00184 1.72 0.00279 2.61-0.123 2.07-0.123 2.07-1.12 4.07h-2v-119c-1.98-0.66-3.96-1.32-6-2v-1h6v-2c-3.58-1-3.58-1-7 0-0.369-15.7-0.369-15.7 2-23h3v-2h2v-11h5v-5z" fill="#D7DAD9"/>
<path transform="translate(366,116)" d="m0 0h841v3h-841v-3z" fill="#D7DAD9"/>
<path transform="translate(366,111)" d="m0 0h841v3h-841v-3z" fill="#D7DAD9"/>
<path transform="translate(392,271)" d="m0 0c267 0.33 533 0.66 808 1v3h-806c-0.66-1.32-1.32-2.64-2-4z"/>
<path transform="translate(1506,99)" d="m0 0h1v583h-16c-0.99-1.32-1.98-2.64-3-4h5v-10c0.99 0.33 1.98 0.66 3 1v3c0.34-0.959 0.34-0.959 0.688-1.94 1.31-2.06 1.31-2.06 3.94-2.81 1.18-0.124 1.18-0.124 2.38-0.25-0.66-0.33-1.32-0.66-2-1v-3h3c-3.8e-4 -1.16-7.59e-4 -2.32-0.00115-3.52-0.0167-51.2-0.0321-102-0.0412-153-2.07e-4 -1.16-2.07e-4 -1.16-4.18e-4 -2.34-0.00299-16.8-0.00576-33.6-0.0083-50.4-0.00125-8.25-0.00254-16.5-0.00387-24.7-1.31e-4 -0.821-2.62e-4 -1.64-3.96e-4 -2.49-0.00427-26.6-0.0118-53.2-0.021-79.9-0.00942-27.3-0.0156-54.7-0.0176-82-2.88e-4 -3.86-6.14e-4 -7.72-9.62e-4 -11.6-6.74e-5 -0.759-1.35e-4 -1.52-2.04e-4 -2.3-0.00118-12.2-0.00583-24.5-0.0118-36.7-0.00587-12.3-0.00814-24.6-0.00667-36.9 6.96e-4 -6.67-3.78e-4 -13.3-0.0057-20-0.00483-6.09-0.00513-12.2-0.00169-18.3 4.26e-4 -2.22-8.72e-4 -4.43-0.00398-6.65-0.00396-2.99-0.00188-5.98 0.00184-8.97-0.00263-0.878-0.00525-1.76-0.00796-2.66 0.0169-5.92 0.0169-5.92 1.13-7.04 0.235-2.35 0.414-4.71 0.562-7.06 0.0838-1.29 0.168-2.58 0.254-3.91 0.0909-1.5 0.0909-1.5 0.184-3.03z" fill="#D9DCDB"/>
<path transform="translate(87,142)" d="m0 0c0.66 0.33 1.32 0.66 2 1v491h2v7h-2c0.0232 1.06 0.0464 2.12 0.0703 3.21 0.0188 1.39 0.037 2.78 0.0547 4.16 0.0251 1.05 0.0251 1.05 0.0508 2.12 0.0177 1.84-0.0727 3.67-0.176 5.51-0.66 0.66-1.32 1.32-2 2-2.82-12.9-2.13-26.4-2.09-39.5 0.00298-2.06 0.00552-4.11 0.00765-6.17 0.00712-5.62 0.0206-11.2 0.0352-16.9 0.0146-6.07 0.0233-12.1 0.0328-18.2 0.0184-11.2 0.0414-22.4 0.0669-33.6 0.0235-10.3 0.0451-20.7 0.0648-31 0.00131-0.687 0.00262-1.37 0.00397-2.08 0.00532-2.79 0.0106-5.57 0.0159-8.36 0.0497-26.1 0.105-52.2 0.164-78.3 0.0518-23.2 0.0984-46.4 0.141-69.6 0.0474-26.1 0.098-52.2 0.154-78.3 0.00594-2.78 0.0119-5.56 0.0178-8.33 0.00146-0.684 0.00292-1.37 0.00443-2.07 0.0221-10.3 0.0417-20.7 0.0601-31 0.0209-11.7 0.0455-23.5 0.0746-35.2 0.0148-6 0.0279-12 0.0368-18 0.00815-5.48 0.0208-11 0.0373-16.4 0.00516-1.99 0.0086-3.98 0.0102-5.97 0.00245-2.69 0.0109-5.38 0.0211-8.06-7.37e-4 -0.789-0.00147-1.58-0.00223-2.39 0.0295-5.32 0.0295-5.32 1.14-6.44z" fill="#D9DCDB"/>
<path transform="translate(967,579)" d="m0 0h233v4c-12.2 1.04-24.4 1.14-36.7 1.11-2.15-2.83e-4 -4.3-1.23e-4 -6.45 4.43e-4 -5.79 2.85e-4 -11.6-0.00556-17.4-0.0126-6.07-0.00628-12.1-0.00684-18.2-0.00803-11.5-0.0031-22.9-0.0113-34.4-0.0213-13.1-0.0112-26.1-0.0167-39.2-0.0217-26.9-0.0104-53.7-0.028-80.6-0.0503v-5z"/>
<path transform="translate(1202,591)" d="m0 0c-0.33 2.97-0.66 5.94-1 9h2v4h3v10c-5.35 1-9.62 0.849-15 0v-13h-3v-2h-179v-1c18.1-1.02 36.1-1.12 54.2-1.07 3.97 0.0102 7.94 0.0135 11.9 0.0174 10 0.011 20.1 0.0306 30.1 0.051 10.9 0.0221 21.8 0.0426 32.6 0.0534 4.7 0.00494 9.39 0.0147 14.1 0.0284 2.92 0.00751 5.85 0.0108 8.77 0.013 1.98 0.00273 3.96 0.0105 5.94 0.0185 7.16 4.2e-4 14.2-0.31 21.3-1.11v-2h-179v-1c18.1-1.01 36.1-1.12 54.2-1.07 3.96 0.0102 7.92 0.0135 11.9 0.0174 10 0.011 20 0.0305 30 0.051 10.8 0.0221 21.7 0.0427 32.5 0.0534 4.68 0.00493 9.36 0.0147 14 0.0284 2.92 0.00753 5.84 0.0108 8.76 0.013 1.97 0.00272 3.94 0.0105 5.9 0.0185 7.21 4.21e-4 14.3-0.293 21.5-0.892 4.73-0.33 9.44-0.308 14.2-0.221z" fill="#D7DAD9"/>
<path transform="translate(389,185)" d="m0 0h2c1.19 2.38 1.11 3.8 1.1 6.46-0.00326 0.932-0.00652 1.86-0.00987 2.83-0.00834 1.02-0.0167 2.04-0.0253 3.09-0.00866 2.19-0.0172 4.38-0.0256 6.57-0.00621 1.15-0.0124 2.31-0.0188 3.49-0.0874 17.3-0.0963 34.5 0.419 51.7 0.0296 1.08 0.0296 1.08 0.0598 2.17-0.477 6.77-0.477 6.77 1.5 12.6 2.85 0.148 5.67 0.235 8.52 0.281 0.857 0.0184 1.71 0.0368 2.6 0.0558 2.75 0.0589 5.5 0.112 8.25 0.163 3.61 0.0676 7.22 0.141 10.8 0.219 0.834 0.0136 1.67 0.0272 2.53 0.0411 3.32 0.0714 6.09 0.184 9.26 1.24v2l-13 1v3c-7.15 0.577-14.2 1.06-21.4 0.969-5.21 0.0627-10.4 0.576-15.6 1.03-0.33 0.99-0.66 1.98-1 3-0.917-5.38-1.11-10.5-1-16 1.98-0.495 1.98-0.495 4-1-0.00222-0.873-0.00444-1.75-0.00673-2.65-0.0201-8.28-0.0353-16.6-0.0451-24.8-0.00519-4.26-0.0122-8.51-0.0236-12.8-0.011-4.12-0.0169-8.23-0.0194-12.4-0.00183-1.56-0.0054-3.12-0.0109-4.68-0.0311-9.28 0.219-18.5 1.11-27.7z" fill="#D8DBDA"/>
<path transform="translate(1455,673)" d="m0 0 15 3v-2h8c0.495 0.99 0.495 0.99 1 2h2v2c1.09-0.0825 2.19-0.165 3.31-0.25 1.22 0.0825 2.43 0.165 3.69 0.25 1.73 2.02 1.73 2.02 3 4-20.4 0.208-40.7 0.407-61-2v-1c3.3-0.33 6.6-0.66 10-1h-9c-0.33-0.66-0.66-1.32-1-2h25v-3z" fill="#D8DBDA"/>
<path transform="translate(383,526)" d="m0 0h2c0.154 15.6 0.302 31.1 0.443 46.7 0.0656 7.22 0.133 14.4 0.205 21.7 0.0629 6.3 0.122 12.6 0.177 18.9 0.0291 3.33 0.0607 6.67 0.0955 10 0.0386 3.72 0.0707 7.45 0.101 11.2 0.0129 1.1 0.0259 2.21 0.0392 3.35 0.00704 1.02 0.0141 2.03 0.0213 3.08 0.0083 0.88 0.0166 1.76 0.0251 2.67-0.112 2.59-0.534 4.97-1.11 7.49h-3c-1.12-5.75-1.12-5.75 0-8 0.0881-2.73 0.115-5.44 0.0977-8.17-0.00146-0.846-0.00292-1.69-0.00443-2.56-0.00382-1.85-0.00994-3.69-0.0181-5.54-0.0128-2.95-0.0193-5.9-0.0241-8.84-0.0134-7.34-0.0372-14.7-0.0614-22-0.0232-7.16-0.0417-14.3-0.0521-21.5-0.00152-0.989-0.00304-1.98-0.00461-3-0.0151-15.1 0.221-30.3 1.07-45.4z" fill="#D9DCDB"/>
<path transform="translate(966,613)" d="m0 0h3v60h-3v-60z" fill="#D7DAD9"/>
<path transform="translate(1187,434)" d="m0 0h11c0.33 0.66 0.66 1.32 1 2h-2c0.66 1.65 1.32 3.3 2 5h-2v6h-2v-2h-2c-0.33 0.66-0.66 1.32-1 2h-2v-2c-4.29-0.33-8.58-0.66-13-1v-2h10v-3h-10v-2h10v-3z" fill="#D7DAD9"/>
<path transform="translate(392,524)" d="m0 0h1v135h-1v-135z" fill="#000202"/>
<path transform="translate(969,652)" d="m0 0 2 2c-0.33 0.66-0.66 1.32-1 2 0.99 0.33 1.98 0.66 3 1h-2v4h2c0.748 7.03 1.14 13.9 1 21-2.88 0.188-2.88 0.188-6 0-2.15-3.23-2.2-4.28-2-8 0.99-0.33 1.98-0.66 3-1v-21z" fill="#D9DCDB"/>
<path transform="translate(134 675)" d="m0 0c1.52 0.0783 1.52 0.0783 3.07 0.158 2.48 0.129 4.95 0.263 7.43 0.404v4c-3.73 0.198-7.46 0.381-11.2 0.562-1.06 0.0561-2.11 0.112-3.2 0.17-1.53 0.0725-1.53 0.0725-3.1 0.146-0.937 0.0471-1.87 0.0943-2.84 0.143-2.73-0.0221-5.06-0.276-7.68-1.02-1.31-2.06-1.31-2.06-2-4 6.6-1.06 12.8-0.943 19.5-0.562z" fill="#D9DCDB"/>
<path transform="translate(340,674)" d="m0 0v2c-4.15 1.01-7.99 1.07-12.2 1-5.69-0.0446-11.1 0.209-16.8 1l-1-2c9.91-2.64 19.8-2.19 30-2z" fill="#D9DCDB"/>
<path transform="translate(425,436)" d="m0 0h24c0.33 0.99 0.66 1.98 1 3h-25v-3z" fill="#D9DCDB"/>
<path transform="translate(382,380)" d="m0 0c0.99 0.33 1.98 0.66 3 1v30h-2c-0.33-10.2-0.66-20.5-1-31z" fill="#D9DCDB"/>
<path transform="translate(86,666)" d="m0 0h3v15c-1.32-0.33-2.64-0.66-4-1 0.33-4.62 0.66-9.24 1-14z" fill="#D9DCDB"/>
<path transform="translate(470,441)" d="m0 0h14v3c-4.76 0.953-9.17 1.08-14 1v-4z" fill="#D9DCDB"/>
<path transform="translate(1185,583)" d="m0 0c2.27-0.054 4.54-0.0928 6.81-0.125 1.26-0.0232 2.53-0.0464 3.83-0.0703 3.36 0.195 3.36 0.195 6.36 2.2-1 1-1 1-4.6 1.1-1.49-0.00667-2.98-0.0186-4.46-0.0352-0.759-0.00451-1.52-0.00902-2.3-0.0137-1.88-0.0118-3.76-0.0298-5.64-0.0488v-3z" fill="#D7DAD9"/>
<path transform="translate(392,194)" d="m0 0h1v45h-1v-45z" fill="#000202"/>
<path transform="translate(1200,499)" d="m0 0 4 2v13c-1.32-0.99-2.64-1.98-4-3-0.391-2.92-0.391-2.92-0.25-6.19 0.0361-1.09 0.0722-2.17 0.109-3.29 0.0464-0.831 0.0928-1.66 0.141-2.52z" fill="#D7DAD9"/>
<path transform="translate(1189,579)" d="m0 0h11v4c-5.96 0.391-5.96 0.391-8 0-0.99-1.32-1.98-2.64-3-4z" fill="#000202"/>
<path transform="translate(1189,426)" d="m0 0h11v4c-6.4 0.492-6.4 0.492-9.44-2-0.516-0.66-1.03-1.32-1.56-2z" fill="#000202"/>
<path transform="translate(1209,591)" d="m0 0h2v16c-0.33-1.32-0.66-2.64-1-4h-2c-0.143-8.57-0.143-8.57 1-12z" fill="#D7DAD9"/>
<path transform="translate(1202,184)" d="m0 0c1.48 0.99 1.48 0.99 3 2v4h-2c0.371 0.701 0.743 1.4 1.12 2.12 1.11 3.64 0.316 5.43-1.12 8.88h-1v-17z" fill="#D7DAD9"/>
<path transform="translate(392,358)" d="m0 0h1v33h-1v-33z" fill="#000202"/>
<path transform="translate(1186,604)" d="m0 0c0.99 0.33 1.98 0.66 3 1v9h-3v-10z" fill="#D7DAD9"/>
<path transform="translate(1181,604)" d="m0 0c0.99 0.33 1.98 0.66 3 1v9h-3v-10z" fill="#D7DAD9"/>
<path transform="translate(1221,353)" d="m0 0h4v7h-4v-7z" fill="#D9DCDB"/>
<path transform="translate(80,607)" d="m0 0h1v14h-1v-14z" fill="#D7DAD9"/>
<path transform="translate(1507,664)" d="m0 0h1v10h-1v-10z" fill="#000202"/>
</svg>
