<?xml version="1.0" encoding="UTF-8"?>
<svg version="1.1" viewBox="0 0 1600 784" width="1280" height="1280" xmlns="http://www.w3.org/2000/svg">
<path transform="translate(289,380)" d="m0 0h1014c-0.33 35.3-0.66 70.6-1 107h-263c-1.39 2.78-1.08 5-1.03 8.11 0.0378 5.3-0.0109 10.6-0.188 15.9-0.0334 1.02-0.0334 1.02-0.0674 2.06-0.0926 2.78-0.189 5.56-0.287 8.34-0.366 10.6-0.427 21-0.427 31.6 257 0.495 257 0.495 520 1-0.33 7.26-0.66 14.5-1 22-0.33 35-0.66 70-1 106h-1515c-0.975-2.93-1.13-4.79-1.13-7.84-0.00282-0.997-0.00564-1.99-0.00854-3.02 0.00202-1.09 0.00405-2.19 0.00613-3.31-0.00175-1.15-0.0035-2.3-0.00531-3.49-0.00441-3.82-0.00148-7.64 0.00189-11.5-6.73e-4 -2.65-0.00164-5.3-0.0029-7.95-0.00182-5.56 5.8e-4 -11.1 0.00534-16.7 0.00543-6.42 0.00369-12.8-0.00183-19.3-0.00455-5.52-0.00517-11-0.00256-16.5 0.00156-3.29 0.00138-6.58-0.00154-9.88-0.00254-3.67 0.00133-7.35 0.0069-11-0.00304-1.63-0.00304-1.63-0.00613-3.29 0.00282-1.01 0.00564-2.01 0.00854-3.05 3.77e-4 -0.868 7.54e-4 -1.74 0.00114-2.63 0.14-2.88 0.651-5.74 1.13-8.59h532c-0.33-21.1-0.66-42.2-1-64h2v-3h-283c-1.78-3.56-2.25-4.52-2.25-8.17-0.00419-0.823-0.00839-1.65-0.0127-2.49 0.00562-0.894 0.0112-1.79 0.017-2.71-0.0019-0.948-0.0038-1.9-0.00575-2.87-0.00371-3.14 0.00699-6.27 0.0182-9.41 0.00119-2.18 0.00164-4.36 0.00139-6.54 0.00156-4.57 0.00985-9.14 0.0233-13.7 0.017-5.86 0.0208-11.7 0.0201-17.6 2.72e-4 -4.5 0.00576-9 0.013-13.5 0.00318-2.16 0.00515-4.32 0.00589-6.48 0.00217-3.02 0.0109-6.04 0.0216-9.06-4.53e-4 -0.892-9.06e-4 -1.78-0.00137-2.7 0.00426-0.826 0.00853-1.65 0.0129-2.5 0.00168-0.713 0.00335-1.43 0.00508-2.16 0.129-2.13 0.129-2.13 1.13-7.13z" fill="#D9DCDB"/>
<path transform="translate(262,165)" d="m0 0h1279c-0.33 0.99-0.66 1.98-1 3-0.0847 2.21-0.107 4.43-0.0977 6.64 0.00146 0.67 0.00292 1.34 0.00443 2.03 0.0038 1.45 0.00992 2.91 0.0181 4.36 0.0128 2.3 0.0193 4.6 0.0241 6.9 0.0114 4.88 0.0307 9.75 0.051 14.6 0.0236 5.65 0.044 11.3 0.0559 17 0.0065 2.27 0.019 4.54 0.0317 6.8 0.00363 1.39 0.00698 2.77 0.01 4.16 0.00524 1.21 0.0105 2.42 0.0159 3.67-0.114 2.84-0.114 2.84-1.11 4.84-0.0965 2-0.13 4-0.125 6-0.00258 1.07-0.00516 2.14-0.00781 3.25-0.0544 2.71-0.0544 2.71 1.13 4.75 0.0957 1.55 0.131 3.1 0.133 4.65 0.00129 0.923 0.00258 1.85 0.00391 2.8l-0.0117 2.93 0.0117 2.91c-0.00129 0.926-0.00258 1.85-0.00391 2.8-0.00169 1.27-0.00169 1.27-0.00342 2.56-0.129 2.35-0.129 2.35-0.7 4.53-0.654 1.9-0.654 1.9 0.571 3.82-0.33 7.26-0.66 14.5-1 22h-189c-1.3-3.89-1.08-7.56-1.03-11.6 0.0511-7.94-0.0339-15.9-0.227-23.8-0.0246-1.05-0.0492-2.09-0.0746-3.17-0.103-4.31-0.209-8.62-0.32-12.9-0.0813-3.2-0.156-6.39-0.231-9.59-0.027-0.982-0.0541-1.96-0.0819-2.98-0.0201-0.896-0.0402-1.79-0.0609-2.72-0.02-0.79-0.04-1.58-0.0606-2.39 0.0823-1.81 0.0823-1.81 1.08-2.81l-1087-1c-1.13-10.1-1.13-10.1-1.13-14.7-0.00315-1.03-0.0063-2.06-0.00955-3.12 0.00202-1.08 0.00405-2.16 0.00613-3.28-9.57e-4 -1.13-0.00191-2.27-0.0029-3.44-6.77e-4 -2.38 0.00114-4.76 0.00534-7.15 0.00539-3.65 2.33e-5 -7.31-0.00635-11 6.6e-4 -2.32 0.00194-4.64 0.00391-6.96-0.00202-1.09-0.00405-2.19-0.00613-3.31 0.00315-1.01 0.0063-2.02 0.00955-3.07 7.96e-4 -0.89 0.00159-1.78 0.00241-2.7 0.127-2.27 0.127-2.27 1.13-5.27z" fill="#D6D9D8"/>
<path transform="translate(298,266)" d="m0 0h394c0 47 0 47-1 49v30h-393c-1.16-3.49-1.13-6.21-1.13-9.89-0.00175-0.696-0.0035-1.39-0.00531-2.11-0.0044-2.3-0.00149-4.6 0.00189-6.91-6.74e-4 -1.6-0.00164-3.2-0.0029-4.8-0.00147-3.35 6.7e-4 -6.71 0.00534-10.1 0.00569-4.3 0.00242-8.6-0.00357-12.9-0.00362-3.31-0.00246-6.61 1.28e-4 -9.92 6.67e-4 -1.58-1.5e-4 -3.17-0.00248-4.75-0.00254-2.22 0.00134-4.43 0.0069-6.65 7.96e-4 -1.26 0.00159-2.52 0.00241-3.82 0.127-3.19 0.127-3.19 1.13-7.19z" fill="#D9DCDB"/>
<path transform="translate(905,266)" d="m0 0h394c-0.33 26.1-0.66 52.1-1 79h-393c-1.16-3.49-1.13-6.21-1.13-9.89-0.00175-0.696-0.0035-1.39-0.00531-2.11-0.0044-2.3-0.00149-4.6 0.00189-6.91-6.74e-4 -1.6-0.00164-3.2-0.0029-4.8-0.00147-3.35 6.7e-4 -6.71 0.00534-10.1 0.00569-4.3 0.00242-8.6-0.00357-12.9-0.00362-3.31-0.00246-6.61 1.28e-4 -9.92 6.67e-4 -1.58-1.5e-4 -3.17-0.00248-4.75-0.00254-2.22 0.00134-4.43 0.0069-6.65 7.96e-4 -1.26 0.00159-2.52 0.00241-3.82 0.127-3.19 0.127-3.19 1.13-7.19z" fill="#D9DCDB"/>
<path transform="translate(55,154)" d="m0 0h195c-0.33 0.99-0.66 1.98-1 3 0.142 0.84 0.283 1.68 0.429 2.54 0.76 4.6 0.71 9.09 0.7 13.7 0.00263 1.53 0.00263 1.53 0.00531 3.1 0.00439 3.37 0.00149 6.73-0.00189 10.1 6.74e-4 2.34 0.00164 4.68 0.0029 7.02 0.00147 4.9-6.65e-4 9.8-0.00534 14.7-0.00571 6.29-0.00241 12.6 0.00357 18.9 0.00361 4.83 0.00247 9.66-1.28e-4 14.5-6.69e-4 2.32 1.57e-4 4.64 0.00248 6.96 0.00253 3.23-0.00132 6.47-0.0069 9.7 0.00202 0.965 0.00405 1.93 0.00613 2.92-0.00282 0.878-0.00564 1.76-0.00854 2.66-5.66e-4 1.15-5.66e-4 1.15-0.00114 2.32-0.126 1.87-0.126 1.87-1.13 3.87v31h-193c-2-3.99-2.25-5.48-2.25-9.78-0.00419-1.18-0.00839-2.36-0.0127-3.57 0.00562-1.29 0.0112-2.58 0.017-3.91-0.00107-1.38-0.00301-2.75-0.00575-4.13-0.00485-3.73 0.0028-7.46 0.013-11.2 0.00878-3.9 0.00702-7.81 0.00664-11.7 9.36e-4 -6.55 0.00962-13.1 0.0233-19.7 0.0157-7.58 0.021-15.2 0.0203-22.7-6.1e-4 -7.29 0.00449-14.6 0.0128-21.9 0.00353-3.1 0.00536-6.21 0.00589-9.31 1e-3 -3.65 0.0071-7.31 0.0172-11 0.00432-1.98 0.00375-3.97 0.00306-5.95 0.00426-1.18 0.00853-2.35 0.0129-3.56 0.00251-1.54 0.00251-1.54 0.00508-3.1 0.129-2.54 0.129-2.54 1.13-5.54z" fill="#D6D9D8"/>
<path transform="translate(672,96)" d="m0 0c32.6-0.0228 65.2-0.0405 97.7-0.0511 3.84-0.00125 7.69-0.00255 11.5-0.00387 0.765-2.62e-4 1.53-5.25e-4 2.32-7.95e-4 12.4-0.00436 24.8-0.0122 37.2-0.0214 12.7-0.00934 25.4-0.0149 38.2-0.0169 7.85-0.00137 15.7-0.00572 23.6-0.0138 6.01-0.00589 12-0.00654 18-0.00519 2.47-2.76e-4 4.95-0.00228 7.42-0.0061 3.36-0.00494 6.72-0.00379 10.1-0.00105 1.49-0.00437 1.49-0.00437 3-0.00883 1.34 0.00299 1.34 0.00299 2.71 0.00603 0.777-3.8e-4 1.55-7.59e-4 2.35-0.00115 1.89 0.124 1.89 0.124 3.89 1.12v49h-257c-0.96-2.88-1.12-4.67-1.11-7.66 7.55e-5 -0.941 1.51e-4 -1.88 2.29e-4 -2.85 0.00516-1.01 0.0103-2.03 0.0156-3.07 0.00141-1.04 0.00283-2.08 0.00429-3.15 0.0056-3.32 0.0182-6.64 0.0309-9.96 0.00501-2.25 0.00958-4.5 0.0137-6.75 0.011-5.52 0.0278-11 0.0488-16.6z" fill="#D8DBDA"/>
<path transform="translate(289,380)" d="m0 0h1014c-0.33 1.32-0.66 2.64-1 4h-1013v-4z"/>
<path transform="translate(40,554)" d="m0 0h532v4c-263 0.495-263 0.495-532 1v-5z"/>
<path transform="translate(1037,553)" d="m0 0c257 0.495 257 0.495 520 1v6c-0.99-0.33-1.98-0.66-3-1-2.81-0.0991-5.6-0.14-8.41-0.136-0.872-0.00254-1.74-0.00509-2.64-0.0077-2.95-0.00737-5.9-0.0076-8.85-0.00791-2.13-0.00385-4.25-0.00813-6.38-0.0128-5.86-0.0117-11.7-0.0171-17.6-0.0216-6.31-0.00594-12.6-0.0176-18.9-0.0286-10.9-0.0184-21.9-0.0332-32.8-0.0458-15.8-0.0182-31.7-0.0429-47.5-0.0694-7.37-0.0123-14.7-0.0243-22.1-0.0362-1.11-0.00179-1.11-0.00179-2.24-0.00361-17.6-0.0283-35.1-0.0535-52.7-0.0782-0.769-0.00108-1.54-0.00216-2.33-0.00328-12.5-0.0175-25-0.0349-37.4-0.0522-11.7-0.0162-23.4-0.0325-35.1-0.049-0.768-0.00108-1.54-0.00216-2.33-0.00327-17.5-0.0246-35.1-0.0502-52.6-0.0785-1.1-0.00179-1.1-0.00179-2.23-0.00361-7.35-0.0119-14.7-0.024-22.1-0.0363-15.8-0.0264-31.6-0.05-47.4-0.0682-11.5-0.0133-23-0.03-34.6-0.0501-6.25-0.0108-12.5-0.0199-18.7-0.0247-5.71-0.00441-11.4-0.0133-17.1-0.0259-2.07-0.00376-4.15-0.0058-6.22-0.00602-2.8-5.36e-4 -5.61-0.0071-8.41-0.0153-1.23 0.00196-1.23 0.00196-2.49 0.00397-5.57-0.0257-5.57-0.0257-7.8-1.14v-4z"/>
<path transform="translate(298,266)" d="m0 0h394c-0.33 0.99-0.66 1.98-1 3h-393v-3z"/>
<path transform="translate(905,266)" d="m0 0h394c-0.33 0.99-0.66 1.98-1 3h-393v-3z"/>
<path transform="translate(1556,576)" d="m0 0h1v106h-1v-106z" fill="#000204"/>
<path transform="translate(260,179)" d="m0 0h1v41h-1v-41z" fill="#D9DCDB"/>
<path transform="translate(561,554)" d="m0 0h11v4c-7.49 0.368-7.49 0.368-10-1.44-1-1.56-1-1.56-1-2.56z" fill="#000103"/>
<path transform="translate(671,98)" d="m0 0h1v16h-1v-16z" fill="#D9DCDB"/>
<path transform="translate(249,270)" d="m0 0h1v15h-1v-15z" fill="#000204"/>
<path transform="translate(691,315)" d="m0 0h1v14h-1v-14z" fill="#000204"/>
<path transform="translate(1539,239)" d="m0 0h1v12h-1v-12z" fill="#000204"/>
<path transform="translate(1037,527)" d="m0 0h1v9h-1v-9z" fill="#000204"/>
</svg>
